<svg width="250" height="250" viewBox="0 0 250 250" fill="none" xmlns="http://www.w3.org/2000/svg">
<circle cx="125" cy="125" r="97" fill="url(#paint0_linear_391_6519)" fill-opacity="0.05"/>
<circle cx="125" cy="125" r="96.5" stroke="url(#paint1_linear_391_6519)" stroke-opacity="0.6" stroke-dasharray="2 2"/>
<circle cx="125" cy="125" r="71.5" fill="url(#paint2_linear_391_6519)" fill-opacity="0.4" stroke="url(#paint3_linear_391_6519)"/>
<g filter="url(#filter0_d_391_6519)">
<circle cx="125" cy="125" r="54" fill="url(#paint4_linear_391_6519)"/>
<circle cx="125" cy="125" r="53.5" stroke="url(#paint5_linear_391_6519)"/>
</g>
<circle cx="204" cy="61" r="23.5" fill="url(#paint6_linear_391_6519)" stroke="url(#paint7_linear_391_6519)"/>
<circle cx="37" cy="109" r="18.5" fill="url(#paint8_linear_391_6519)" stroke="url(#paint9_linear_391_6519)"/>
<g filter="url(#filter1_d_391_6519)">
<ellipse cx="121.29" cy="113.724" rx="110.259" ry="40.0443" transform="rotate(-20.8876 121.29 113.724)" stroke="url(#paint10_linear_391_6519)" stroke-width="2" shape-rendering="crispEdges"/>
</g>
<g filter="url(#filter2_d_391_6519)">
<circle cx="163.5" cy="138.5" r="6.5" fill="url(#paint11_linear_391_6519)"/>
<circle cx="163.5" cy="138.5" r="6" stroke="white"/>
</g>
<g filter="url(#filter3_d_391_6519)">
<path d="M148.425 119.855C152.309 122.185 152.309 127.815 148.425 130.145L116.087 149.548C112.088 151.947 107 149.067 107 144.403L107 105.597C107 100.933 112.088 98.0527 116.087 100.452L148.425 119.855Z" fill="url(#paint12_linear_391_6519)" shape-rendering="crispEdges"/>
<path d="M148.168 120.284C151.728 122.42 151.728 127.58 148.168 129.716L115.83 149.119C112.164 151.319 107.5 148.678 107.5 144.403L107.5 105.597C107.5 101.322 112.164 98.6814 115.83 100.881L148.168 120.284Z" stroke="url(#paint13_linear_391_6519)" shape-rendering="crispEdges"/>
</g>
<path fill-rule="evenodd" clip-rule="evenodd" d="M198 49C195.791 49 194 50.7909 194 53V69C194 71.2091 195.791 73 198 73H210C212.209 73 214 71.2091 214 69V53C214 50.7909 212.209 49 210 49H198ZM201 68C200.448 68 200 68.4477 200 69C200 69.5523 200.448 70 201 70H207C207.552 70 208 69.5523 208 69C208 68.4477 207.552 68 207 68H201Z" fill="#0781FC"/>
<path fill-rule="evenodd" clip-rule="evenodd" d="M28 102C28 99.7909 29.7909 98 32 98H42C44.2091 98 46 99.7909 46 102V115C46 117.209 44.2091 119 42 119H32C29.7909 119 28 117.209 28 115V102ZM31 103C31 101.895 31.8954 101 33 101H41C42.1046 101 43 101.895 43 103V107C43 108.105 42.1046 109 41 109H33C31.8954 109 31 108.105 31 107V103ZM37 117C38.6569 117 40 115.657 40 114C40 112.343 38.6569 111 37 111C35.3431 111 34 112.343 34 114C34 115.657 35.3431 117 37 117Z" fill="#0781FC"/>
<circle cx="190" cy="193" r="13.5" fill="url(#paint14_linear_391_6519)" stroke="url(#paint15_linear_391_6519)"/>
<path fill-rule="evenodd" clip-rule="evenodd" d="M187 193.5C187 194.328 186.328 195 185.5 195C184.672 195 184 194.328 184 193.5C184 192.672 184.672 192 185.5 192C186.328 192 187 192.672 187 193.5ZM192 193.5C192 194.328 191.328 195 190.5 195C189.672 195 189 194.328 189 193.5C189 192.672 189.672 192 190.5 192C191.328 192 192 192.672 192 193.5ZM195.5 195C196.328 195 197 194.328 197 193.5C197 192.672 196.328 192 195.5 192C194.672 192 194 192.672 194 193.5C194 194.328 194.672 195 195.5 195Z" fill="#0781FC"/>
<defs>
<filter id="filter0_d_391_6519" x="55" y="55" width="140" height="140" filterUnits="userSpaceOnUse" color-interpolation-filters="sRGB">
<feFlood flood-opacity="0" result="BackgroundImageFix"/>
<feColorMatrix in="SourceAlpha" type="matrix" values="0 0 0 0 0 0 0 0 0 0 0 0 0 0 0 0 0 0 127 0" result="hardAlpha"/>
<feOffset/>
<feGaussianBlur stdDeviation="8"/>
<feComposite in2="hardAlpha" operator="out"/>
<feColorMatrix type="matrix" values="0 0 0 0 0.131042 0 0 0 0 0.488732 0 0 0 0 0.85 0 0 0 0.3 0"/>
<feBlend mode="normal" in2="BackgroundImageFix" result="effect1_dropShadow_391_6519"/>
<feBlend mode="normal" in="SourceGraphic" in2="effect1_dropShadow_391_6519" result="shape"/>
</filter>
<filter id="filter1_d_391_6519" x="12.2793" y="54.4553" width="218.022" height="118.537" filterUnits="userSpaceOnUse" color-interpolation-filters="sRGB">
<feFlood flood-opacity="0" result="BackgroundImageFix"/>
<feColorMatrix in="SourceAlpha" type="matrix" values="0 0 0 0 0 0 0 0 0 0 0 0 0 0 0 0 0 0 127 0" result="hardAlpha"/>
<feOffset/>
<feGaussianBlur stdDeviation="2"/>
<feComposite in2="hardAlpha" operator="out"/>
<feColorMatrix type="matrix" values="0 0 0 0 1 0 0 0 0 1 0 0 0 0 1 0 0 0 1 0"/>
<feBlend mode="normal" in2="BackgroundImageFix" result="effect1_dropShadow_391_6519"/>
<feBlend mode="normal" in="SourceGraphic" in2="effect1_dropShadow_391_6519" result="shape"/>
</filter>
<filter id="filter2_d_391_6519" x="153" y="128" width="21" height="21" filterUnits="userSpaceOnUse" color-interpolation-filters="sRGB">
<feFlood flood-opacity="0" result="BackgroundImageFix"/>
<feColorMatrix in="SourceAlpha" type="matrix" values="0 0 0 0 0 0 0 0 0 0 0 0 0 0 0 0 0 0 127 0" result="hardAlpha"/>
<feOffset/>
<feGaussianBlur stdDeviation="2"/>
<feComposite in2="hardAlpha" operator="out"/>
<feColorMatrix type="matrix" values="0 0 0 0 1 0 0 0 0 1 0 0 0 0 1 0 0 0 1 0"/>
<feBlend mode="normal" in2="BackgroundImageFix" result="effect1_dropShadow_391_6519"/>
<feBlend mode="normal" in="SourceGraphic" in2="effect1_dropShadow_391_6519" result="shape"/>
</filter>
<filter id="filter3_d_391_6519" x="99" y="95.5879" width="60.3381" height="66.8242" filterUnits="userSpaceOnUse" color-interpolation-filters="sRGB">
<feFlood flood-opacity="0" result="BackgroundImageFix"/>
<feColorMatrix in="SourceAlpha" type="matrix" values="0 0 0 0 0 0 0 0 0 0 0 0 0 0 0 0 0 0 127 0" result="hardAlpha"/>
<feOffset dy="4"/>
<feGaussianBlur stdDeviation="4"/>
<feComposite in2="hardAlpha" operator="out"/>
<feColorMatrix type="matrix" values="0 0 0 0 0.301597 0 0 0 0 0.358848 0 0 0 0 0.716667 0 0 0 0.2 0"/>
<feBlend mode="normal" in2="BackgroundImageFix" result="effect1_dropShadow_391_6519"/>
<feBlend mode="normal" in="SourceGraphic" in2="effect1_dropShadow_391_6519" result="shape"/>
</filter>
<linearGradient id="paint0_linear_391_6519" x1="222" y1="28" x2="1.37726" y2="184.459" gradientUnits="userSpaceOnUse">
<stop stop-color="#0781FC"/>
<stop offset="1" stop-color="#BBD7F3"/>
</linearGradient>
<linearGradient id="paint1_linear_391_6519" x1="222" y1="39.8776" x2="-3.75983" y2="178.012" gradientUnits="userSpaceOnUse">
<stop stop-color="#0781FC"/>
<stop offset="1" stop-color="#BBD7F3"/>
</linearGradient>
<linearGradient id="paint2_linear_391_6519" x1="197" y1="53" x2="33.2388" y2="169.135" gradientUnits="userSpaceOnUse">
<stop stop-color="#0781FC"/>
<stop offset="1" stop-color="#BBD7F3"/>
</linearGradient>
<linearGradient id="paint3_linear_391_6519" x1="197" y1="61.8164" x2="29.4257" y2="164.349" gradientUnits="userSpaceOnUse">
<stop stop-color="white" stop-opacity="0.7"/>
<stop offset="1" stop-color="white" stop-opacity="0.1"/>
</linearGradient>
<linearGradient id="paint4_linear_391_6519" x1="179" y1="71" x2="56.1791" y2="158.101" gradientUnits="userSpaceOnUse">
<stop stop-color="#0781FC"/>
<stop offset="1" stop-color="#BBD7F3"/>
</linearGradient>
<linearGradient id="paint5_linear_391_6519" x1="179" y1="77.6123" x2="53.3193" y2="154.512" gradientUnits="userSpaceOnUse">
<stop stop-color="white" stop-opacity="0.7"/>
<stop offset="1" stop-color="white" stop-opacity="0.1"/>
</linearGradient>
<linearGradient id="paint6_linear_391_6519" x1="228.255" y1="37" x2="188.856" y2="91.3196" gradientUnits="userSpaceOnUse">
<stop stop-color="white"/>
<stop offset="1" stop-color="white" stop-opacity="0.6"/>
</linearGradient>
<linearGradient id="paint7_linear_391_6519" x1="227.895" y1="37" x2="188.705" y2="90.8627" gradientUnits="userSpaceOnUse">
<stop stop-color="white" stop-opacity="0.8"/>
<stop offset="1" stop-color="white" stop-opacity="0.3"/>
</linearGradient>
<linearGradient id="paint8_linear_391_6519" x1="56.2018" y1="90" x2="25.0109" y2="133.003" gradientUnits="userSpaceOnUse">
<stop stop-color="white"/>
<stop offset="1" stop-color="white" stop-opacity="0.6"/>
</linearGradient>
<linearGradient id="paint9_linear_391_6519" x1="55.917" y1="90" x2="24.8911" y2="132.641" gradientUnits="userSpaceOnUse">
<stop stop-color="white" stop-opacity="0.8"/>
<stop offset="1" stop-color="white" stop-opacity="0.3"/>
</linearGradient>
<linearGradient id="paint10_linear_391_6519" x1="121.29" y1="73.6796" x2="121.29" y2="153.768" gradientUnits="userSpaceOnUse">
<stop offset="0.34" stop-color="white" stop-opacity="0"/>
<stop offset="1" stop-color="white"/>
</linearGradient>
<linearGradient id="paint11_linear_391_6519" x1="170" y1="132" x2="155.216" y2="142.484" gradientUnits="userSpaceOnUse">
<stop stop-color="#0781FC"/>
<stop offset="1" stop-color="#BBD7F3"/>
</linearGradient>
<linearGradient id="paint12_linear_391_6519" x1="157" y1="155.319" x2="93.7552" y2="117.092" gradientUnits="userSpaceOnUse">
<stop stop-color="white"/>
<stop offset="1" stop-color="white" stop-opacity="0.6"/>
</linearGradient>
<linearGradient id="paint13_linear_391_6519" x1="157" y1="154.869" x2="94.2568" y2="116.826" gradientUnits="userSpaceOnUse">
<stop stop-color="white" stop-opacity="0.8"/>
<stop offset="1" stop-color="white" stop-opacity="0.3"/>
</linearGradient>
<linearGradient id="paint14_linear_391_6519" x1="204.149" y1="179" x2="181.166" y2="210.686" gradientUnits="userSpaceOnUse">
<stop stop-color="white"/>
<stop offset="1" stop-color="white" stop-opacity="0.6"/>
</linearGradient>
<linearGradient id="paint15_linear_391_6519" x1="203.939" y1="179" x2="181.078" y2="210.42" gradientUnits="userSpaceOnUse">
<stop stop-color="white" stop-opacity="0.8"/>
<stop offset="1" stop-color="white" stop-opacity="0.3"/>
</linearGradient>
</defs>
</svg>
