<svg width="250" height="250" viewBox="0 0 250 250" fill="none" xmlns="http://www.w3.org/2000/svg">
<circle cx="125" cy="125" r="97" fill="url(#paint0_linear_391_1338)" fill-opacity="0.05"/>
<circle cx="125" cy="125" r="96.5" stroke="url(#paint1_linear_391_1338)" stroke-opacity="0.6" stroke-dasharray="2 2"/>
<circle cx="125" cy="125" r="71.5" fill="url(#paint2_linear_391_1338)" fill-opacity="0.4" stroke="url(#paint3_linear_391_1338)"/>
<g filter="url(#filter0_d_391_1338)">
<circle cx="125" cy="125" r="54" fill="url(#paint4_linear_391_1338)"/>
<circle cx="125" cy="125" r="53.5" stroke="url(#paint5_linear_391_1338)"/>
</g>
<circle cx="66" cy="87" r="25.5" fill="url(#paint6_linear_391_1338)" stroke="url(#paint7_linear_391_1338)"/>
<path d="M52.9072 81.3105H55.1484V93H52.9072V81.3105ZM57.9961 87.3223C57.9961 86.4375 58.125 85.6113 58.3828 84.8438C58.6465 84.0762 59.0127 83.4141 59.4814 82.8574C60.4834 81.6797 61.752 81.0908 63.2871 81.0908C64.7578 81.0908 65.9355 81.6445 66.8203 82.752C67.6816 83.8301 68.1123 85.2568 68.1123 87.0322C68.1123 89.0361 67.5908 90.5977 66.5479 91.7168C65.6162 92.7188 64.4209 93.2197 62.9619 93.2197C61.5498 93.2197 60.3721 92.6748 59.4287 91.585C58.4736 90.4775 57.9961 89.0566 57.9961 87.3223ZM61.0723 90.0996C61.3301 90.4336 61.6377 90.6943 61.9951 90.8818C62.3525 91.0635 62.7158 91.1543 63.085 91.1543C63.46 91.1543 63.8086 91.0723 64.1309 90.9082C64.4531 90.7441 64.7432 90.498 65.001 90.1699C65.5811 89.4199 65.8711 88.4385 65.8711 87.2256C65.8711 85.9834 65.625 84.9902 65.1328 84.2461C64.6348 83.5137 63.9609 83.1475 63.1113 83.1475C62.2559 83.1475 61.5645 83.5283 61.0371 84.29C60.5039 85.0576 60.2373 86.0508 60.2373 87.2695C60.2373 88.4355 60.5156 89.3789 61.0723 90.0996ZM75.8994 82.1631C76.0225 81.9053 76.084 81.7148 76.084 81.5918C76.084 81.4629 76.0723 81.3691 76.0488 81.3105H79.2129C79.1484 81.3809 79.0664 81.4658 78.9668 81.5654C78.8672 81.6592 78.7559 81.7734 78.6328 81.9082C78.3398 82.2363 78.0703 82.6172 77.8242 83.0508L75.7061 86.918L77.6836 90.6357L77.9209 91.1191C78.3662 92.0449 78.7441 92.6719 79.0547 93H76.1895C76.166 92.7949 76.0664 92.5195 75.8906 92.1738L74.168 88.8691C72.9551 91.3242 72.334 92.5898 72.3047 92.666C72.2754 92.7656 72.252 92.877 72.2344 93H69.3691C69.5859 92.7773 69.8086 92.4639 70.0371 92.0596L71.0918 90.1875L72.9639 87.0146L70.5029 82.3828C70.2393 81.8848 70.0078 81.5273 69.8086 81.3105H72.7617C72.7383 81.3691 72.7266 81.4336 72.7266 81.5039C72.7266 81.6621 72.7998 81.8818 72.9463 82.1631L74.4141 85.0986L75.8994 82.1631Z" fill="#0781FC"/>
<g filter="url(#filter1_d_391_1338)">
<mask id="path-8-inside-1_391_1338" fill="white">
<path fill-rule="evenodd" clip-rule="evenodd" d="M150.549 97.8741C151.563 98.06 151.616 98.1024 151.77 99.0903C151.903 99.94 152.015 100.795 151.999 101.661C151.999 101.799 151.993 101.942 151.988 102.085L151.988 102.086C151.834 107.136 150.745 111.991 148.924 116.696C146.746 122.321 143.559 127.276 139.093 131.371C138.726 131.705 138.615 132.061 138.663 132.528C138.74 133.285 138.81 134.043 138.88 134.802C138.951 135.56 139.021 136.318 139.098 137.075C139.465 140.606 138.227 143.496 135.38 145.546C132.852 147.366 130.237 149.069 127.625 150.771C127.082 151.125 126.538 151.479 125.996 151.834C125.433 152.2 124.833 152.37 124.259 152.37C122.809 152.37 121.508 151.287 121.349 149.598C121.094 146.895 120.892 144.181 120.706 141.472C120.703 141.434 120.701 141.396 120.698 141.36C120.612 140.117 120.611 140.102 119.336 139.932C115.852 139.47 113.122 137.818 111.247 134.812C110.286 133.267 109.808 131.556 109.638 129.761C109.59 129.22 109.372 129.082 108.863 129.055C106.042 128.901 103.222 128.731 100.402 128.519C98.06 128.343 96.8704 125.868 98.1291 123.808C98.7256 122.833 99.3437 121.874 99.9625 120.915C100.264 120.448 100.565 119.981 100.864 119.511C101.237 118.924 101.609 118.338 101.981 117.752C102.589 116.793 103.197 115.836 103.807 114.88C105.607 112.06 108.199 110.535 111.523 110.509H111.651C113.007 110.509 114.362 110.68 115.716 110.851C116.224 110.916 116.731 110.98 117.238 111.035L117.253 111.036C117.316 111.041 117.375 111.045 117.435 111.045C117.695 111.045 117.902 110.971 118.104 110.748C122.523 105.814 127.982 102.484 134.17 100.253C137.664 98.9947 141.265 98.1715 144.956 97.7891C145.875 97.6935 146.799 97.6298 147.723 97.6298C148.669 97.6298 149.609 97.6988 150.549 97.8741ZM135.003 122.581H135.062C139.534 122.581 143.135 119.028 143.193 114.54C143.246 110.222 139.672 106.51 135.423 106.441H135.274C130.925 106.441 127.191 109.633 127.085 114.588C126.994 118.768 130.781 122.549 135.003 122.581ZM114.089 147.537C114.828 146.799 115.568 146.061 116.303 145.317C117.296 144.313 116.994 143.012 115.65 142.556C114.907 142.301 114.19 141.993 113.504 141.615C110.408 139.895 108.273 137.361 107.099 134.015C106.797 133.166 106.335 132.794 105.501 132.783C105.469 132.778 105.432 132.778 105.395 132.778C105.039 132.778 104.709 132.948 104.433 133.224C102.893 134.759 101.353 136.299 99.818 137.839C99.3506 138.312 99.1913 138.87 99.4409 139.512C99.7011 140.171 100.195 140.511 100.891 140.543C101.232 140.558 101.574 140.559 101.915 140.561C102.052 140.562 102.188 140.562 102.325 140.564C103.116 140.58 103.132 140.596 102.888 141.329C102.661 142.017 102.431 142.704 102.201 143.392C101.865 144.396 101.529 145.4 101.204 146.406C100.923 147.272 101.188 147.978 101.895 148.376C102.128 148.504 102.362 148.557 102.596 148.557C102.84 148.557 103.095 148.499 103.344 148.414C104.17 148.14 104.994 147.865 105.819 147.591C106.643 147.316 107.468 147.041 108.294 146.767C108.565 146.677 108.74 146.618 108.857 146.618C109.069 146.618 109.075 146.814 109.091 147.353L109.091 147.357C109.095 147.539 109.096 147.722 109.097 147.905C109.098 148.179 109.099 148.453 109.112 148.727C109.144 149.449 109.479 149.964 110.174 150.219C110.366 150.294 110.546 150.326 110.716 150.326C111.152 150.326 111.529 150.108 111.879 149.752C112.612 149.011 113.35 148.274 114.089 147.537Z"/>
</mask>
<path fill-rule="evenodd" clip-rule="evenodd" d="M150.549 97.8741C151.563 98.06 151.616 98.1024 151.77 99.0903C151.903 99.94 152.015 100.795 151.999 101.661C151.999 101.799 151.993 101.942 151.988 102.085L151.988 102.086C151.834 107.136 150.745 111.991 148.924 116.696C146.746 122.321 143.559 127.276 139.093 131.371C138.726 131.705 138.615 132.061 138.663 132.528C138.74 133.285 138.81 134.043 138.88 134.802C138.951 135.56 139.021 136.318 139.098 137.075C139.465 140.606 138.227 143.496 135.38 145.546C132.852 147.366 130.237 149.069 127.625 150.771C127.082 151.125 126.538 151.479 125.996 151.834C125.433 152.2 124.833 152.37 124.259 152.37C122.809 152.37 121.508 151.287 121.349 149.598C121.094 146.895 120.892 144.181 120.706 141.472C120.703 141.434 120.701 141.396 120.698 141.36C120.612 140.117 120.611 140.102 119.336 139.932C115.852 139.47 113.122 137.818 111.247 134.812C110.286 133.267 109.808 131.556 109.638 129.761C109.59 129.22 109.372 129.082 108.863 129.055C106.042 128.901 103.222 128.731 100.402 128.519C98.06 128.343 96.8704 125.868 98.1291 123.808C98.7256 122.833 99.3437 121.874 99.9625 120.915C100.264 120.448 100.565 119.981 100.864 119.511C101.237 118.924 101.609 118.338 101.981 117.752C102.589 116.793 103.197 115.836 103.807 114.88C105.607 112.06 108.199 110.535 111.523 110.509H111.651C113.007 110.509 114.362 110.68 115.716 110.851C116.224 110.916 116.731 110.98 117.238 111.035L117.253 111.036C117.316 111.041 117.375 111.045 117.435 111.045C117.695 111.045 117.902 110.971 118.104 110.748C122.523 105.814 127.982 102.484 134.17 100.253C137.664 98.9947 141.265 98.1715 144.956 97.7891C145.875 97.6935 146.799 97.6298 147.723 97.6298C148.669 97.6298 149.609 97.6988 150.549 97.8741ZM135.003 122.581H135.062C139.534 122.581 143.135 119.028 143.193 114.54C143.246 110.222 139.672 106.51 135.423 106.441H135.274C130.925 106.441 127.191 109.633 127.085 114.588C126.994 118.768 130.781 122.549 135.003 122.581ZM114.089 147.537C114.828 146.799 115.568 146.061 116.303 145.317C117.296 144.313 116.994 143.012 115.65 142.556C114.907 142.301 114.19 141.993 113.504 141.615C110.408 139.895 108.273 137.361 107.099 134.015C106.797 133.166 106.335 132.794 105.501 132.783C105.469 132.778 105.432 132.778 105.395 132.778C105.039 132.778 104.709 132.948 104.433 133.224C102.893 134.759 101.353 136.299 99.818 137.839C99.3506 138.312 99.1913 138.87 99.4409 139.512C99.7011 140.171 100.195 140.511 100.891 140.543C101.232 140.558 101.574 140.559 101.915 140.561C102.052 140.562 102.188 140.562 102.325 140.564C103.116 140.58 103.132 140.596 102.888 141.329C102.661 142.017 102.431 142.704 102.201 143.392C101.865 144.396 101.529 145.4 101.204 146.406C100.923 147.272 101.188 147.978 101.895 148.376C102.128 148.504 102.362 148.557 102.596 148.557C102.84 148.557 103.095 148.499 103.344 148.414C104.17 148.14 104.994 147.865 105.819 147.591C106.643 147.316 107.468 147.041 108.294 146.767C108.565 146.677 108.74 146.618 108.857 146.618C109.069 146.618 109.075 146.814 109.091 147.353L109.091 147.357C109.095 147.539 109.096 147.722 109.097 147.905C109.098 148.179 109.099 148.453 109.112 148.727C109.144 149.449 109.479 149.964 110.174 150.219C110.366 150.294 110.546 150.326 110.716 150.326C111.152 150.326 111.529 150.108 111.879 149.752C112.612 149.011 113.35 148.274 114.089 147.537Z" fill="url(#paint8_linear_391_1338)" shape-rendering="crispEdges"/>
<path d="M151.77 99.0903L150.782 99.2443L150.782 99.2447L151.77 99.0903ZM150.549 97.8741L150.365 98.8571L150.368 98.8577L150.549 97.8741ZM151.999 101.661L150.999 101.642L150.999 101.652V101.661H151.999ZM151.988 102.085L150.989 102.048L150.989 102.05L151.988 102.085ZM151.988 102.086L150.989 102.05L150.988 102.055L151.988 102.086ZM148.924 116.696L149.856 117.057L149.856 117.057L148.924 116.696ZM139.093 131.371L139.767 132.109L139.769 132.108L139.093 131.371ZM138.663 132.528L139.658 132.427L139.657 132.427L138.663 132.528ZM138.88 134.802L139.876 134.709L138.88 134.802ZM139.098 137.075L138.103 137.176L138.103 137.178L139.098 137.075ZM135.38 145.546L135.965 146.357L135.965 146.357L135.38 145.546ZM127.625 150.771L127.079 149.933H127.079L127.625 150.771ZM125.996 151.834L126.541 152.672L126.543 152.671L125.996 151.834ZM121.349 149.598L120.353 149.692L120.353 149.692L121.349 149.598ZM120.706 141.472L121.704 141.404L121.704 141.402L120.706 141.472ZM120.698 141.36L119.701 141.43L119.701 141.43L120.698 141.36ZM119.336 139.932L119.468 138.941L119.467 138.941L119.336 139.932ZM111.247 134.812L110.398 135.34L110.399 135.341L111.247 134.812ZM109.638 129.761L108.642 129.849L108.642 129.856L109.638 129.761ZM108.863 129.055L108.808 130.053L108.811 130.054L108.863 129.055ZM100.402 128.519L100.477 127.521L100.477 127.521L100.402 128.519ZM98.1291 123.808L97.276 123.286L97.2757 123.286L98.1291 123.808ZM99.9625 120.915L99.1221 120.373H99.1221L99.9625 120.915ZM100.864 119.511L101.708 120.048L101.708 120.048L100.864 119.511ZM101.981 117.752L101.137 117.216H101.137L101.981 117.752ZM103.807 114.88L102.964 114.342L102.963 114.342L103.807 114.88ZM111.523 110.509V109.509L111.515 109.509L111.523 110.509ZM115.716 110.851L115.591 111.844L115.716 110.851ZM117.238 111.035L117.13 112.029L117.146 112.031L117.161 112.032L117.238 111.035ZM117.253 111.036L117.33 110.039L117.33 110.039L117.253 111.036ZM118.104 110.748L118.845 111.419L118.849 111.415L118.104 110.748ZM134.17 100.253L133.831 99.3126L133.83 99.3127L134.17 100.253ZM144.956 97.7891L145.059 98.7838L145.06 98.7837L144.956 97.7891ZM135.003 122.581L134.996 123.581H135.003V122.581ZM143.193 114.54L144.193 114.553L144.193 114.552L143.193 114.54ZM135.423 106.441L135.439 105.441L135.431 105.441H135.423V106.441ZM127.085 114.588L128.084 114.609L128.084 114.609L127.085 114.588ZM116.303 145.317L115.592 144.614L115.592 144.614L116.303 145.317ZM114.089 147.537L114.795 148.245H114.795L114.089 147.537ZM115.65 142.556L115.326 143.501L115.328 143.502L115.65 142.556ZM113.504 141.615L113.019 142.49L113.022 142.492L113.504 141.615ZM107.099 134.015L108.043 133.684L108.041 133.68L107.099 134.015ZM105.501 132.783L105.336 133.77L105.412 133.782L105.488 133.783L105.501 132.783ZM104.433 133.224L105.139 133.932L105.14 133.931L104.433 133.224ZM99.818 137.839L99.1096 137.133L99.1069 137.136L99.818 137.839ZM99.4409 139.512L98.5087 139.874L98.5109 139.88L99.4409 139.512ZM100.891 140.543L100.845 141.542L100.846 141.542L100.891 140.543ZM101.915 140.561L101.92 139.561H101.92L101.915 140.561ZM102.325 140.564L102.345 139.564L102.336 139.564L102.325 140.564ZM102.888 141.329L101.939 141.012L101.938 141.016L102.888 141.329ZM102.201 143.392L103.149 143.709H103.149L102.201 143.392ZM101.204 146.406L102.155 146.715L102.156 146.713L101.204 146.406ZM101.895 148.376L101.403 149.248L101.416 149.254L101.895 148.376ZM103.344 148.414L103.03 147.464L103.022 147.467L103.344 148.414ZM105.819 147.591L106.135 148.539L105.819 147.591ZM108.294 146.767L108.609 147.716L108.611 147.716L108.294 146.767ZM109.091 147.353L108.091 147.382L108.091 147.383L109.091 147.353ZM109.091 147.357L110.091 147.333L110.091 147.327L109.091 147.357ZM109.097 147.905L108.097 147.909V147.909L109.097 147.905ZM109.112 148.727L110.111 148.683L110.111 148.68L109.112 148.727ZM110.174 150.219L110.537 149.287L110.528 149.284L110.518 149.28L110.174 150.219ZM111.879 149.752L111.168 149.049L111.167 149.05L111.879 149.752ZM152.758 98.9362C152.721 98.6998 152.681 98.4479 152.617 98.2299C152.549 97.9969 152.432 97.7139 152.185 97.4699C151.942 97.2299 151.661 97.1149 151.436 97.0467C151.222 96.9817 150.97 96.9347 150.729 96.8904L150.368 98.8577C150.634 98.9064 150.77 98.9344 150.855 98.9605C150.931 98.9834 150.863 98.9757 150.779 98.893C150.692 98.8064 150.68 98.7307 150.697 98.7894C150.718 98.863 150.742 98.9869 150.782 99.2443L152.758 98.9362ZM152.998 101.679C153.016 100.722 152.892 99.7952 152.758 98.9359L150.782 99.2447C150.913 100.085 151.013 100.868 150.999 101.642L152.998 101.679ZM152.987 102.122C152.992 101.983 152.999 101.821 152.999 101.661H150.999C150.999 101.777 150.994 101.901 150.989 102.048L152.987 102.122ZM152.987 102.122L152.987 102.121L150.989 102.05L150.989 102.05L152.987 102.122ZM149.856 117.057C151.713 112.26 152.83 107.294 152.987 102.116L150.988 102.055C150.838 106.979 149.777 111.722 147.991 116.335L149.856 117.057ZM139.769 132.108C144.362 127.897 147.63 122.807 149.856 117.057L147.991 116.335C145.862 121.834 142.757 126.655 138.417 130.633L139.769 132.108ZM139.657 132.427C139.644 132.297 139.66 132.249 139.664 132.237C139.667 132.229 139.681 132.188 139.767 132.109L138.419 130.632C138.138 130.888 137.913 131.192 137.781 131.563C137.65 131.929 137.633 132.292 137.668 132.63L139.657 132.427ZM139.876 134.709C139.806 133.952 139.735 133.189 139.658 132.427L137.668 132.63C137.744 133.381 137.814 134.135 137.885 134.894L139.876 134.709ZM140.093 136.973C140.017 136.222 139.947 135.468 139.876 134.709L137.885 134.894C137.955 135.651 138.026 136.414 138.103 137.176L140.093 136.973ZM135.965 146.357C139.115 144.088 140.495 140.844 140.093 136.971L138.103 137.178C138.435 140.369 137.339 142.903 134.796 144.734L135.965 146.357ZM128.171 151.609C130.78 149.909 133.415 148.193 135.965 146.357L134.796 144.734C132.29 146.538 129.695 148.229 127.079 149.933L128.171 151.609ZM126.543 152.671C127.085 152.316 127.627 151.963 128.171 151.609L127.079 149.933C126.536 150.287 125.992 150.642 125.448 150.997L126.543 152.671ZM124.259 153.37C125.033 153.37 125.822 153.14 126.541 152.672L125.45 150.996C125.044 151.26 124.632 151.37 124.259 151.37V153.37ZM120.353 149.692C120.56 151.889 122.288 153.37 124.259 153.37V151.37C123.331 151.37 122.456 150.685 122.344 149.504L120.353 149.692ZM119.708 141.541C119.895 144.252 120.097 146.976 120.353 149.692L122.344 149.504C122.091 146.813 121.889 144.109 121.704 141.404L119.708 141.541ZM119.701 141.43C119.703 141.466 119.706 141.504 119.709 141.542L121.704 141.402C121.701 141.364 121.698 141.327 121.696 141.29L119.701 141.43ZM119.203 140.923C119.541 140.968 119.718 140.994 119.834 141.023C119.944 141.05 119.845 141.046 119.736 140.93C119.625 140.813 119.625 140.71 119.644 140.814C119.664 140.926 119.677 141.096 119.701 141.43L121.696 141.29C121.676 141.003 121.656 140.704 121.612 140.459C121.567 140.205 121.471 139.855 121.189 139.557C120.91 139.261 120.566 139.144 120.315 139.081C120.069 139.02 119.768 138.981 119.468 138.941L119.203 140.923ZM110.399 135.341C112.442 138.617 115.444 140.424 119.204 140.923L119.467 138.941C116.26 138.515 113.802 137.019 112.096 134.283L110.399 135.341ZM108.642 129.856C108.823 131.767 109.337 133.635 110.398 135.34L112.096 134.284C111.235 132.898 110.792 131.346 110.634 129.667L108.642 129.856ZM108.811 130.054C108.904 130.058 108.934 130.067 108.931 130.066C108.921 130.063 108.853 130.043 108.776 129.977C108.694 129.907 108.653 129.832 108.637 129.791C108.626 129.762 108.635 129.77 108.642 129.849L110.634 129.673C110.602 129.308 110.495 128.813 110.071 128.453C109.679 128.119 109.202 128.071 108.915 128.056L108.811 130.054ZM100.327 129.516C103.157 129.729 105.985 129.899 108.808 130.053L108.917 128.056C106.1 127.903 103.288 127.733 100.477 127.521L100.327 129.516ZM97.2757 123.286C95.6605 125.931 97.1769 129.28 100.328 129.516L100.477 127.521C98.9432 127.407 98.0802 125.806 98.9825 124.329L97.2757 123.286ZM99.1221 120.373C98.5044 121.331 97.8798 122.299 97.276 123.286L98.9821 124.33C99.5714 123.366 100.183 122.418 100.803 121.457L99.1221 120.373ZM100.021 118.974C99.7235 119.441 99.4236 119.905 99.1221 120.373L100.803 121.457C101.104 120.99 101.407 120.521 101.708 120.048L100.021 118.974ZM101.137 117.216C100.765 117.802 100.393 118.388 100.02 118.975L101.708 120.048C102.081 119.461 102.454 118.874 102.826 118.287L101.137 117.216ZM102.963 114.342C102.353 115.299 101.745 116.258 101.137 117.216L102.826 118.287C103.434 117.329 104.041 116.372 104.65 115.418L102.963 114.342ZM111.515 109.509C107.831 109.538 104.935 111.255 102.964 114.342L104.649 115.418C106.279 112.865 108.566 111.533 111.531 111.509L111.515 109.509ZM111.651 109.509H111.523V111.509H111.651V109.509ZM115.842 109.859C114.499 109.69 113.08 109.509 111.651 109.509V111.509C112.933 111.509 114.226 111.671 115.591 111.844L115.842 109.859ZM117.346 110.041C116.849 109.987 116.351 109.924 115.842 109.859L115.591 111.844C116.097 111.907 116.613 111.973 117.13 112.029L117.346 110.041ZM117.33 110.039L117.315 110.038L117.161 112.032L117.176 112.033L117.33 110.039ZM117.435 110.045C117.421 110.045 117.401 110.044 117.33 110.039L117.176 112.033C117.232 112.037 117.33 112.045 117.435 112.045V110.045ZM117.362 110.077C117.35 110.09 117.348 110.09 117.356 110.084C117.365 110.078 117.38 110.068 117.401 110.06C117.421 110.051 117.437 110.047 117.447 110.046C117.455 110.044 117.452 110.045 117.435 110.045V112.045C117.662 112.045 117.918 112.013 118.182 111.901C118.447 111.788 118.664 111.619 118.845 111.419L117.362 110.077ZM133.83 99.3127C127.517 101.589 121.908 105.002 117.359 110.081L118.849 111.415C123.137 106.626 128.447 103.379 134.509 101.194L133.83 99.3127ZM144.853 96.7944C141.081 97.1852 137.401 98.0265 133.831 99.3126L134.508 101.194C137.927 99.9629 141.449 99.1578 145.059 98.7838L144.853 96.7944ZM147.723 96.6298C146.754 96.6298 145.794 96.6966 144.853 96.7945L145.06 98.7837C145.956 98.6904 146.844 98.6298 147.723 98.6298V96.6298ZM150.732 96.891C149.72 96.7023 148.717 96.6298 147.723 96.6298V98.6298C148.62 98.6298 149.497 98.6953 150.365 98.8571L150.732 96.891ZM135.062 121.581H135.003V123.581H135.062V121.581ZM142.193 114.527C142.142 118.469 138.985 121.581 135.062 121.581V123.581C140.082 123.581 144.127 119.587 144.193 114.553L142.193 114.527ZM135.407 107.441C139.094 107.5 142.239 110.749 142.193 114.528L144.193 114.552C144.253 109.695 140.25 105.519 135.439 105.441L135.407 107.441ZM135.274 107.441H135.423V105.441H135.274V107.441ZM128.084 114.609C128.178 110.225 131.441 107.441 135.274 107.441V105.441C130.408 105.441 126.203 109.041 126.085 114.566L128.084 114.609ZM135.011 121.581C131.324 121.553 128.007 118.21 128.084 114.609L126.085 114.566C125.982 119.326 130.238 123.545 134.996 123.581L135.011 121.581ZM115.592 144.614C114.859 145.355 114.122 146.091 113.382 146.829L114.795 148.245C115.534 147.507 116.276 146.767 117.014 146.021L115.592 144.614ZM115.328 143.502C115.746 143.644 115.855 143.856 115.88 143.96C115.904 144.065 115.9 144.303 115.592 144.614L117.014 146.021C117.699 145.328 118.041 144.413 117.826 143.502C117.612 142.591 116.898 141.923 115.972 141.609L115.328 143.502ZM113.022 142.492C113.764 142.9 114.535 143.23 115.326 143.501L115.974 141.61C115.278 141.371 114.615 141.085 113.987 140.739L113.022 142.492ZM106.156 134.346C107.41 137.923 109.708 140.65 113.019 142.49L113.99 140.741C111.108 139.14 109.136 136.8 108.043 133.684L106.156 134.346ZM105.488 133.783C105.755 133.787 105.847 133.844 105.885 133.874C105.937 133.914 106.041 134.025 106.157 134.351L108.041 133.68C107.855 133.157 107.577 132.656 107.113 132.296C106.637 131.924 106.08 131.791 105.513 131.783L105.488 133.783ZM105.395 133.778C105.405 133.778 105.409 133.778 105.413 133.778C105.417 133.778 105.416 133.778 105.413 133.778C105.409 133.778 105.401 133.777 105.389 133.776C105.377 133.775 105.359 133.773 105.336 133.77L105.665 131.797C105.535 131.775 105.409 131.778 105.395 131.778V133.778ZM105.14 133.931C105.286 133.785 105.375 133.778 105.395 133.778V131.778C104.702 131.778 104.133 132.11 103.726 132.517L105.14 133.931ZM100.526 138.545C102.06 137.006 103.6 135.466 105.139 133.932L103.727 132.516C102.186 134.051 100.645 135.592 99.1096 137.133L100.526 138.545ZM100.373 139.15C100.312 138.994 100.319 138.903 100.333 138.846C100.348 138.782 100.393 138.68 100.529 138.542L99.1069 137.136C98.7753 137.472 98.507 137.884 98.3883 138.378C98.2678 138.879 98.3197 139.388 98.5087 139.874L100.373 139.15ZM100.937 139.544C100.743 139.535 100.639 139.487 100.579 139.445C100.52 139.404 100.442 139.324 100.371 139.145L98.5109 139.88C98.7005 140.36 98.9991 140.779 99.4264 141.08C99.8524 141.38 100.343 141.519 100.845 141.542L100.937 139.544ZM101.92 139.561C101.575 139.559 101.254 139.558 100.935 139.544L100.846 141.542C101.211 141.558 101.572 141.559 101.91 141.561L101.92 139.561ZM102.336 139.564C102.196 139.562 102.056 139.562 101.92 139.561L101.91 141.561C102.047 141.562 102.181 141.562 102.314 141.564L102.336 139.564ZM103.836 141.645C103.891 141.481 103.96 141.276 103.996 141.094C104.023 140.952 104.106 140.497 103.798 140.082C103.5 139.68 103.054 139.615 102.919 139.597C102.739 139.571 102.523 139.568 102.345 139.564L102.305 141.564C102.523 141.568 102.605 141.572 102.643 141.577C102.657 141.579 102.608 141.575 102.533 141.544C102.449 141.509 102.309 141.431 102.191 141.273C102.072 141.112 102.037 140.95 102.029 140.847C102.025 140.799 102.027 140.762 102.029 140.742C102.03 140.731 102.031 140.723 102.031 140.718C102.032 140.713 102.033 140.71 102.033 140.71C102.033 140.71 102.032 140.712 102.031 140.716C102.031 140.72 102.029 140.726 102.027 140.733C102.023 140.748 102.017 140.769 102.009 140.796C101.992 140.852 101.97 140.92 101.939 141.012L103.836 141.645ZM103.149 143.709C103.379 143.022 103.61 142.332 103.838 141.641L101.938 141.016C101.712 141.702 101.483 142.387 101.253 143.074L103.149 143.709ZM102.156 146.713C102.479 145.713 102.813 144.714 103.149 143.709L101.253 143.074C100.917 144.078 100.579 145.087 100.253 146.099L102.156 146.713ZM102.386 147.505C102.213 147.408 102.149 147.308 102.121 147.23C102.09 147.146 102.068 146.984 102.155 146.715L100.253 146.097C100.059 146.693 100.028 147.318 100.237 147.903C100.448 148.494 100.87 148.947 101.403 149.247L102.386 147.505ZM102.596 147.557C102.523 147.557 102.455 147.543 102.373 147.498L101.416 149.254C101.802 149.465 102.201 149.557 102.596 149.557V147.557ZM103.022 147.467C102.828 147.533 102.689 147.557 102.596 147.557V149.557C102.991 149.557 103.362 149.464 103.667 149.36L103.022 147.467ZM105.502 146.642C104.678 146.917 103.855 147.191 103.03 147.464L103.659 149.363C104.486 149.089 105.311 148.814 106.135 148.539L105.502 146.642ZM107.98 145.818C107.153 146.092 106.327 146.367 105.502 146.642L106.135 148.539C106.96 148.264 107.784 147.99 108.609 147.716L107.98 145.818ZM108.857 145.618C108.655 145.618 108.473 145.665 108.363 145.696C108.243 145.73 108.105 145.776 107.978 145.818L108.611 147.716C108.754 147.668 108.84 147.64 108.904 147.622C108.933 147.614 108.943 147.612 108.941 147.612C108.939 147.612 108.908 147.618 108.857 147.618V145.618ZM110.09 147.324C110.084 147.117 110.081 146.788 110.016 146.534C109.978 146.385 109.886 146.121 109.639 145.905C109.371 145.67 109.066 145.618 108.857 145.618V147.618C108.754 147.618 108.53 147.592 108.323 147.41C108.137 147.247 108.088 147.065 108.079 147.033C108.07 146.997 108.074 146.996 108.08 147.075C108.084 147.148 108.087 147.242 108.091 147.382L110.09 147.324ZM110.091 147.327L110.09 147.323L108.091 147.383L108.091 147.386L110.091 147.327ZM110.097 147.9C110.096 147.719 110.095 147.527 110.091 147.333L108.091 147.38C108.095 147.552 108.096 147.725 108.097 147.909L110.097 147.9ZM110.111 148.68C110.1 148.431 110.098 148.178 110.097 147.9L108.097 147.909C108.098 148.18 108.099 148.475 108.113 148.773L110.111 148.68ZM110.518 149.28C110.333 149.212 110.255 149.134 110.215 149.077C110.172 149.015 110.121 148.901 110.111 148.683L108.113 148.771C108.135 149.276 108.267 149.78 108.573 150.219C108.883 150.664 109.32 150.971 109.83 151.158L110.518 149.28ZM110.716 149.326C110.675 149.326 110.617 149.318 110.537 149.287L109.812 151.151C110.114 151.269 110.418 151.326 110.716 151.326V149.326ZM111.167 149.05C110.918 149.303 110.781 149.326 110.716 149.326V151.326C111.522 151.326 112.14 150.912 112.592 150.454L111.167 149.05ZM113.382 146.829C112.644 147.566 111.904 148.305 111.168 149.049L112.59 150.455C113.32 149.717 114.056 148.982 114.795 148.245L113.382 146.829Z" fill="url(#paint9_linear_391_1338)" mask="url(#path-8-inside-1_391_1338)"/>
</g>
<g filter="url(#filter2_d_391_1338)">
<ellipse cx="121.29" cy="113.724" rx="110.259" ry="40.0443" transform="rotate(-20.8876 121.29 113.724)" stroke="url(#paint10_linear_391_1338)" stroke-width="2" shape-rendering="crispEdges"/>
</g>
<g filter="url(#filter3_d_391_1338)">
<circle cx="196.5" cy="118.5" r="6.5" fill="url(#paint11_linear_391_1338)"/>
<circle cx="196.5" cy="118.5" r="6" stroke="white"/>
</g>
<defs>
<filter id="filter0_d_391_1338" x="55" y="55" width="140" height="140" filterUnits="userSpaceOnUse" color-interpolation-filters="sRGB">
<feFlood flood-opacity="0" result="BackgroundImageFix"/>
<feColorMatrix in="SourceAlpha" type="matrix" values="0 0 0 0 0 0 0 0 0 0 0 0 0 0 0 0 0 0 127 0" result="hardAlpha"/>
<feOffset/>
<feGaussianBlur stdDeviation="8"/>
<feComposite in2="hardAlpha" operator="out"/>
<feColorMatrix type="matrix" values="0 0 0 0 0.131042 0 0 0 0 0.488732 0 0 0 0 0.85 0 0 0 0.3 0"/>
<feBlend mode="normal" in2="BackgroundImageFix" result="effect1_dropShadow_391_1338"/>
<feBlend mode="normal" in="SourceGraphic" in2="effect1_dropShadow_391_1338" result="shape"/>
</filter>
<filter id="filter1_d_391_1338" x="89.6191" y="93.6298" width="70.3809" height="70.7405" filterUnits="userSpaceOnUse" color-interpolation-filters="sRGB">
<feFlood flood-opacity="0" result="BackgroundImageFix"/>
<feColorMatrix in="SourceAlpha" type="matrix" values="0 0 0 0 0 0 0 0 0 0 0 0 0 0 0 0 0 0 127 0" result="hardAlpha"/>
<feOffset dy="4"/>
<feGaussianBlur stdDeviation="4"/>
<feComposite in2="hardAlpha" operator="out"/>
<feColorMatrix type="matrix" values="0 0 0 0 0.301597 0 0 0 0 0.358848 0 0 0 0 0.716667 0 0 0 0.2 0"/>
<feBlend mode="normal" in2="BackgroundImageFix" result="effect1_dropShadow_391_1338"/>
<feBlend mode="normal" in="SourceGraphic" in2="effect1_dropShadow_391_1338" result="shape"/>
</filter>
<filter id="filter2_d_391_1338" x="12.2793" y="54.4552" width="218.022" height="118.537" filterUnits="userSpaceOnUse" color-interpolation-filters="sRGB">
<feFlood flood-opacity="0" result="BackgroundImageFix"/>
<feColorMatrix in="SourceAlpha" type="matrix" values="0 0 0 0 0 0 0 0 0 0 0 0 0 0 0 0 0 0 127 0" result="hardAlpha"/>
<feOffset/>
<feGaussianBlur stdDeviation="2"/>
<feComposite in2="hardAlpha" operator="out"/>
<feColorMatrix type="matrix" values="0 0 0 0 1 0 0 0 0 1 0 0 0 0 1 0 0 0 1 0"/>
<feBlend mode="normal" in2="BackgroundImageFix" result="effect1_dropShadow_391_1338"/>
<feBlend mode="normal" in="SourceGraphic" in2="effect1_dropShadow_391_1338" result="shape"/>
</filter>
<filter id="filter3_d_391_1338" x="186" y="108" width="21" height="21" filterUnits="userSpaceOnUse" color-interpolation-filters="sRGB">
<feFlood flood-opacity="0" result="BackgroundImageFix"/>
<feColorMatrix in="SourceAlpha" type="matrix" values="0 0 0 0 0 0 0 0 0 0 0 0 0 0 0 0 0 0 127 0" result="hardAlpha"/>
<feOffset/>
<feGaussianBlur stdDeviation="2"/>
<feComposite in2="hardAlpha" operator="out"/>
<feColorMatrix type="matrix" values="0 0 0 0 1 0 0 0 0 1 0 0 0 0 1 0 0 0 1 0"/>
<feBlend mode="normal" in2="BackgroundImageFix" result="effect1_dropShadow_391_1338"/>
<feBlend mode="normal" in="SourceGraphic" in2="effect1_dropShadow_391_1338" result="shape"/>
</filter>
<linearGradient id="paint0_linear_391_1338" x1="222" y1="28" x2="1.37726" y2="184.459" gradientUnits="userSpaceOnUse">
<stop stop-color="#0781FC"/>
<stop offset="1" stop-color="#BBD7F3"/>
</linearGradient>
<linearGradient id="paint1_linear_391_1338" x1="222" y1="39.8776" x2="-3.75983" y2="178.012" gradientUnits="userSpaceOnUse">
<stop stop-color="#0781FC"/>
<stop offset="1" stop-color="#BBD7F3"/>
</linearGradient>
<linearGradient id="paint2_linear_391_1338" x1="197" y1="53" x2="33.2388" y2="169.135" gradientUnits="userSpaceOnUse">
<stop stop-color="#0781FC"/>
<stop offset="1" stop-color="#BBD7F3"/>
</linearGradient>
<linearGradient id="paint3_linear_391_1338" x1="197" y1="61.8164" x2="29.4257" y2="164.349" gradientUnits="userSpaceOnUse">
<stop stop-color="white" stop-opacity="0.7"/>
<stop offset="1" stop-color="white" stop-opacity="0.1"/>
</linearGradient>
<linearGradient id="paint4_linear_391_1338" x1="179" y1="71" x2="56.1791" y2="158.101" gradientUnits="userSpaceOnUse">
<stop stop-color="#0781FC"/>
<stop offset="1" stop-color="#BBD7F3"/>
</linearGradient>
<linearGradient id="paint5_linear_391_1338" x1="179" y1="77.6123" x2="53.3193" y2="154.512" gradientUnits="userSpaceOnUse">
<stop stop-color="white" stop-opacity="0.7"/>
<stop offset="1" stop-color="white" stop-opacity="0.1"/>
</linearGradient>
<linearGradient id="paint6_linear_391_1338" x1="92.2762" y1="61" x2="49.5939" y2="119.846" gradientUnits="userSpaceOnUse">
<stop stop-color="white"/>
<stop offset="1" stop-color="white" stop-opacity="0.6"/>
</linearGradient>
<linearGradient id="paint7_linear_391_1338" x1="91.8864" y1="61" x2="49.4299" y2="119.351" gradientUnits="userSpaceOnUse">
<stop stop-color="white" stop-opacity="0.8"/>
<stop offset="1" stop-color="white" stop-opacity="0.3"/>
</linearGradient>
<linearGradient id="paint8_linear_391_1338" x1="152.289" y1="97.6298" x2="107.266" y2="159.295" gradientUnits="userSpaceOnUse">
<stop stop-color="white"/>
<stop offset="1" stop-color="white" stop-opacity="0.6"/>
</linearGradient>
<linearGradient id="paint9_linear_391_1338" x1="151.881" y1="97.6298" x2="107.097" y2="158.775" gradientUnits="userSpaceOnUse">
<stop stop-color="white" stop-opacity="0.8"/>
<stop offset="1" stop-color="white" stop-opacity="0.3"/>
</linearGradient>
<linearGradient id="paint10_linear_391_1338" x1="121.29" y1="73.6796" x2="121.29" y2="153.768" gradientUnits="userSpaceOnUse">
<stop offset="0.34" stop-color="white" stop-opacity="0"/>
<stop offset="1" stop-color="white"/>
</linearGradient>
<linearGradient id="paint11_linear_391_1338" x1="203" y1="112" x2="188.216" y2="122.484" gradientUnits="userSpaceOnUse">
<stop stop-color="#0781FC"/>
<stop offset="1" stop-color="#BBD7F3"/>
</linearGradient>
</defs>
</svg>
