<svg width="250" height="250" viewBox="0 0 250 250" fill="none" xmlns="http://www.w3.org/2000/svg">
<circle cx="125" cy="125" r="97" fill="url(#paint0_linear_391_669)" fill-opacity="0.05"/>
<circle cx="125" cy="125" r="96.5" stroke="url(#paint1_linear_391_669)" stroke-opacity="0.6" stroke-dasharray="2 2"/>
<circle cx="125" cy="125" r="73.2705" fill="url(#paint2_linear_391_669)" fill-opacity="0.4" stroke="url(#paint3_linear_391_669)"/>
<g filter="url(#filter0_d_391_669)">
<circle cx="125" cy="125" r="55.3279" fill="url(#paint4_linear_391_669)"/>
<circle cx="125" cy="125" r="54.8279" stroke="url(#paint5_linear_391_669)"/>
</g>
<g filter="url(#filter1_d_391_669)">
<mask id="path-6-inside-1_391_669" fill="white">
<path fill-rule="evenodd" clip-rule="evenodd" d="M125.296 107.087C120.565 107.087 116.261 108.919 113.056 111.921C111.536 113.344 109.207 113.801 107.499 112.609C105.791 111.418 105.354 109.043 106.784 107.529C111.421 102.617 118 99.5449 125.296 99.5449C139.118 99.5449 150.367 110.561 150.742 124.293H154.673C155.516 124.293 155.98 125.272 155.448 125.925L147.755 135.362C147.355 135.853 146.605 135.853 146.205 135.362L138.513 125.925C137.98 125.272 138.445 124.293 139.288 124.293H143.195C142.824 114.728 134.952 107.087 125.296 107.087ZM95.9196 126.65H99.8936C100.744 139.939 111.792 150.455 125.296 150.455C132.593 150.455 139.171 147.383 143.809 142.471C145.239 140.957 144.802 138.582 143.094 137.391C141.385 136.199 139.057 136.656 137.536 138.079C134.331 141.081 130.027 142.913 125.296 142.913C115.959 142.913 108.291 135.77 107.458 126.65H111.305C112.147 126.65 112.612 125.671 112.08 125.018L104.387 115.58C103.987 115.089 103.237 115.089 102.837 115.58L95.1445 125.018C94.612 125.671 95.0769 126.65 95.9196 126.65Z"/>
</mask>
<path fill-rule="evenodd" clip-rule="evenodd" d="M125.296 107.087C120.565 107.087 116.261 108.919 113.056 111.921C111.536 113.344 109.207 113.801 107.499 112.609C105.791 111.418 105.354 109.043 106.784 107.529C111.421 102.617 118 99.5449 125.296 99.5449C139.118 99.5449 150.367 110.561 150.742 124.293H154.673C155.516 124.293 155.98 125.272 155.448 125.925L147.755 135.362C147.355 135.853 146.605 135.853 146.205 135.362L138.513 125.925C137.98 125.272 138.445 124.293 139.288 124.293H143.195C142.824 114.728 134.952 107.087 125.296 107.087ZM95.9196 126.65H99.8936C100.744 139.939 111.792 150.455 125.296 150.455C132.593 150.455 139.171 147.383 143.809 142.471C145.239 140.957 144.802 138.582 143.094 137.391C141.385 136.199 139.057 136.656 137.536 138.079C134.331 141.081 130.027 142.913 125.296 142.913C115.959 142.913 108.291 135.77 107.458 126.65H111.305C112.147 126.65 112.612 125.671 112.08 125.018L104.387 115.58C103.987 115.089 103.237 115.089 102.837 115.58L95.1445 125.018C94.612 125.671 95.0769 126.65 95.9196 126.65Z" fill="url(#paint6_linear_391_669)" shape-rendering="crispEdges"/>
<path d="M113.056 111.921L113.74 112.651V112.651L113.056 111.921ZM107.499 112.609L108.071 111.789H108.071L107.499 112.609ZM106.784 107.529L107.511 108.215H107.511L106.784 107.529ZM150.742 124.293L149.742 124.32L149.769 125.293H150.742V124.293ZM155.448 125.925L154.673 125.293V125.293L155.448 125.925ZM147.755 135.362L148.531 135.994L147.755 135.362ZM146.205 135.362L145.43 135.994L146.205 135.362ZM138.513 125.925L137.737 126.557H137.737L138.513 125.925ZM143.195 124.293V125.293H144.235L144.195 124.254L143.195 124.293ZM99.8936 126.65L100.892 126.586L100.832 125.65H99.8936V126.65ZM143.809 142.471L144.536 143.158H144.536L143.809 142.471ZM143.094 137.391L142.521 138.211V138.211L143.094 137.391ZM137.536 138.079L138.22 138.809L137.536 138.079ZM107.458 126.65V125.65H106.363L106.462 126.741L107.458 126.65ZM112.08 125.018L111.305 125.65L112.08 125.018ZM104.387 115.58L103.612 116.212L103.612 116.212L104.387 115.58ZM102.837 115.58L103.612 116.212L102.837 115.58ZM95.1445 125.018L95.9196 125.65H95.9196L95.1445 125.018ZM113.74 112.651C116.767 109.816 120.828 108.087 125.296 108.087V106.087C120.302 106.087 115.756 108.022 112.372 111.191L113.74 112.651ZM106.927 113.429C109.12 114.959 111.969 114.309 113.74 112.651L112.372 111.191C111.102 112.38 109.295 112.643 108.071 111.789L106.927 113.429ZM106.056 106.842C104.138 108.875 104.804 111.949 106.927 113.429L108.071 111.789C106.777 110.886 106.57 109.212 107.511 108.215L106.056 106.842ZM125.296 98.5449C117.713 98.5449 110.875 101.739 106.056 106.842L107.511 108.215C111.967 103.495 118.286 100.545 125.296 100.545V98.5449ZM151.741 124.266C151.352 109.994 139.661 98.5449 125.296 98.5449V100.545C138.575 100.545 149.382 111.129 149.742 124.32L151.741 124.266ZM150.742 125.293H154.673V123.293H150.742V125.293ZM154.673 125.293L154.673 125.293L156.223 126.557C157.288 125.25 156.358 123.293 154.673 123.293V125.293ZM154.673 125.293L146.98 134.731L148.531 135.994L156.223 126.557L154.673 125.293ZM146.98 134.731L145.43 135.994C146.23 136.976 147.73 136.976 148.531 135.994L146.98 134.731ZM146.98 134.731L139.288 125.293L137.737 126.557L145.43 135.994L146.98 134.731ZM139.288 125.293V123.293C137.602 123.293 136.673 125.25 137.737 126.557L139.288 125.293ZM139.288 125.293H143.195V123.293H139.288V125.293ZM125.296 108.087C134.413 108.087 141.846 115.301 142.196 124.332L144.195 124.254C143.803 114.154 135.492 106.087 125.296 106.087V108.087ZM99.8936 125.65H95.9196V127.65H99.8936V125.65ZM125.296 149.455C112.323 149.455 101.708 139.353 100.892 126.586L98.8957 126.714C99.7793 140.526 111.261 151.455 125.296 151.455V149.455ZM143.082 141.785C138.625 146.505 132.306 149.455 125.296 149.455V151.455C132.879 151.455 139.718 148.261 144.536 143.158L143.082 141.785ZM142.521 138.211C143.816 139.114 144.023 140.788 143.082 141.785L144.536 143.158C146.455 141.125 145.788 138.051 143.666 136.571L142.521 138.211ZM138.22 138.809C139.49 137.62 141.298 137.358 142.521 138.211L143.666 136.571C141.473 135.041 138.623 135.692 136.853 137.349L138.22 138.809ZM125.296 143.913C130.291 143.913 134.836 141.978 138.22 138.809L136.853 137.349C133.826 140.184 129.764 141.913 125.296 141.913V143.913ZM106.462 126.741C107.342 136.371 115.438 143.913 125.296 143.913V141.913C116.481 141.913 109.24 135.168 108.454 126.559L106.462 126.741ZM111.305 125.65H107.458V127.65H111.305V125.65ZM111.305 125.65V127.65C112.99 127.65 113.92 125.693 112.855 124.386L111.305 125.65ZM103.612 116.212L111.305 125.65L112.855 124.386L105.162 114.949L103.612 116.212ZM103.612 116.212L103.612 116.212L105.162 114.949C104.362 113.967 102.862 113.967 102.062 114.949L103.612 116.212ZM95.9196 125.65L103.612 116.212L102.062 114.949L94.3694 124.386L95.9196 125.65ZM95.9196 125.65H95.9196L94.3694 124.386C93.3044 125.693 94.2341 127.65 95.9196 127.65V125.65Z" fill="url(#paint7_linear_391_669)" mask="url(#path-6-inside-1_391_669)"/>
</g>
<g filter="url(#filter2_d_391_669)">
<ellipse cx="121.29" cy="113.724" rx="110.259" ry="40.0443" transform="rotate(-20.8876 121.29 113.724)" stroke="url(#paint8_linear_391_669)" stroke-width="2" shape-rendering="crispEdges"/>
</g>
<g filter="url(#filter3_d_391_669)">
<circle cx="67.5" cy="167.5" r="6.5" fill="url(#paint9_linear_391_669)"/>
<circle cx="67.5" cy="167.5" r="6" stroke="white"/>
</g>
<path d="M185.423 54.011C185.853 52.1264 187.729 50.9473 189.614 51.3773L211.035 56.2649C211.947 56.4729 212.737 57.0373 213.23 57.8321L216.786 63.564C217.272 64.3468 217.429 65.2895 217.224 66.1876L211.246 92.3894C210.816 94.274 208.94 95.4531 207.055 95.0231L181.011 89.0807C179.126 88.6507 177.947 86.7744 178.377 84.8898L185.423 54.011Z" fill="url(#paint10_linear_391_669)" stroke="url(#paint11_linear_391_669)"/>
<path d="M189.4 82.5881C188.624 82.3745 187.965 81.8641 187.566 81.1692C187.167 80.4743 187.062 79.6516 187.273 78.882C187.712 77.252 189.346 76.3093 190.973 76.7473C191.616 76.9206 192.162 77.3108 192.589 77.8322L192.71 77.9883L195.233 68.6203C195.386 68.0518 195.961 67.7179 196.492 67.8609L206.528 69.343L206.603 69.3632C207.143 69.4675 207.511 70.0555 207.358 70.624L204.406 81.5836C204.191 82.3811 203.695 83.0204 202.984 83.3975C202.296 83.7849 201.481 83.8866 200.715 83.6807C199.94 83.4673 199.28 82.9572 198.881 82.2625C198.482 81.5677 198.377 80.7451 198.588 79.9753C199.016 78.3826 200.661 77.4015 202.289 77.8399C202.931 78.0129 203.514 78.4143 203.904 78.9259L204.024 79.0817L205.393 74.0012L195.267 72.4126L193.102 80.4519C192.624 82.0725 190.99 83.0164 189.4 82.5881Z" fill="#0781FC"/>
<circle cx="42" cy="122" r="25.5" fill="url(#paint12_linear_391_669)" stroke="url(#paint13_linear_391_669)"/>
<path d="M28.9072 116.311H31.1484V128H28.9072V116.311ZM33.9961 122.322C33.9961 121.438 34.125 120.611 34.3828 119.844C34.6465 119.076 35.0127 118.414 35.4814 117.857C36.4834 116.68 37.752 116.091 39.2871 116.091C40.7578 116.091 41.9355 116.645 42.8203 117.752C43.6816 118.83 44.1123 120.257 44.1123 122.032C44.1123 124.036 43.5908 125.598 42.5479 126.717C41.6162 127.719 40.4209 128.22 38.9619 128.22C37.5498 128.22 36.3721 127.675 35.4287 126.585C34.4736 125.478 33.9961 124.057 33.9961 122.322ZM37.0723 125.1C37.3301 125.434 37.6377 125.694 37.9951 125.882C38.3525 126.063 38.7158 126.154 39.085 126.154C39.46 126.154 39.8086 126.072 40.1309 125.908C40.4531 125.744 40.7432 125.498 41.001 125.17C41.5811 124.42 41.8711 123.438 41.8711 122.226C41.8711 120.983 41.625 119.99 41.1328 119.246C40.6348 118.514 39.9609 118.147 39.1113 118.147C38.2559 118.147 37.5645 118.528 37.0371 119.29C36.5039 120.058 36.2373 121.051 36.2373 122.27C36.2373 123.436 36.5156 124.379 37.0723 125.1ZM51.8994 117.163C52.0225 116.905 52.084 116.715 52.084 116.592C52.084 116.463 52.0723 116.369 52.0488 116.311H55.2129C55.1484 116.381 55.0664 116.466 54.9668 116.565C54.8672 116.659 54.7559 116.773 54.6328 116.908C54.3398 117.236 54.0703 117.617 53.8242 118.051L51.7061 121.918L53.6836 125.636L53.9209 126.119C54.3662 127.045 54.7441 127.672 55.0547 128H52.1895C52.166 127.795 52.0664 127.52 51.8906 127.174L50.168 123.869C48.9551 126.324 48.334 127.59 48.3047 127.666C48.2754 127.766 48.252 127.877 48.2344 128H45.3691C45.5859 127.777 45.8086 127.464 46.0371 127.06L47.0918 125.188L48.9639 122.015L46.5029 117.383C46.2393 116.885 46.0078 116.527 45.8086 116.311H48.7617C48.7383 116.369 48.7266 116.434 48.7266 116.504C48.7266 116.662 48.7998 116.882 48.9463 117.163L50.4141 120.099L51.8994 117.163Z" fill="#0781FC"/>
<defs>
<filter id="filter0_d_391_669" x="53.6721" y="53.6721" width="142.656" height="142.656" filterUnits="userSpaceOnUse" color-interpolation-filters="sRGB">
<feFlood flood-opacity="0" result="BackgroundImageFix"/>
<feColorMatrix in="SourceAlpha" type="matrix" values="0 0 0 0 0 0 0 0 0 0 0 0 0 0 0 0 0 0 127 0" result="hardAlpha"/>
<feOffset/>
<feGaussianBlur stdDeviation="8"/>
<feComposite in2="hardAlpha" operator="out"/>
<feColorMatrix type="matrix" values="0 0 0 0 0.131042 0 0 0 0 0.488732 0 0 0 0 0.85 0 0 0 0.3 0"/>
<feBlend mode="normal" in2="BackgroundImageFix" result="effect1_dropShadow_391_669"/>
<feBlend mode="normal" in="SourceGraphic" in2="effect1_dropShadow_391_669" result="shape"/>
</filter>
<filter id="filter1_d_391_669" x="86.9177" y="95.5449" width="76.7568" height="66.9103" filterUnits="userSpaceOnUse" color-interpolation-filters="sRGB">
<feFlood flood-opacity="0" result="BackgroundImageFix"/>
<feColorMatrix in="SourceAlpha" type="matrix" values="0 0 0 0 0 0 0 0 0 0 0 0 0 0 0 0 0 0 127 0" result="hardAlpha"/>
<feOffset dy="4"/>
<feGaussianBlur stdDeviation="4"/>
<feComposite in2="hardAlpha" operator="out"/>
<feColorMatrix type="matrix" values="0 0 0 0 0.301597 0 0 0 0 0.358848 0 0 0 0 0.716667 0 0 0 0.2 0"/>
<feBlend mode="normal" in2="BackgroundImageFix" result="effect1_dropShadow_391_669"/>
<feBlend mode="normal" in="SourceGraphic" in2="effect1_dropShadow_391_669" result="shape"/>
</filter>
<filter id="filter2_d_391_669" x="12.2793" y="54.4552" width="218.022" height="118.537" filterUnits="userSpaceOnUse" color-interpolation-filters="sRGB">
<feFlood flood-opacity="0" result="BackgroundImageFix"/>
<feColorMatrix in="SourceAlpha" type="matrix" values="0 0 0 0 0 0 0 0 0 0 0 0 0 0 0 0 0 0 127 0" result="hardAlpha"/>
<feOffset/>
<feGaussianBlur stdDeviation="2"/>
<feComposite in2="hardAlpha" operator="out"/>
<feColorMatrix type="matrix" values="0 0 0 0 1 0 0 0 0 1 0 0 0 0 1 0 0 0 1 0"/>
<feBlend mode="normal" in2="BackgroundImageFix" result="effect1_dropShadow_391_669"/>
<feBlend mode="normal" in="SourceGraphic" in2="effect1_dropShadow_391_669" result="shape"/>
</filter>
<filter id="filter3_d_391_669" x="57" y="157" width="21" height="21" filterUnits="userSpaceOnUse" color-interpolation-filters="sRGB">
<feFlood flood-opacity="0" result="BackgroundImageFix"/>
<feColorMatrix in="SourceAlpha" type="matrix" values="0 0 0 0 0 0 0 0 0 0 0 0 0 0 0 0 0 0 127 0" result="hardAlpha"/>
<feOffset/>
<feGaussianBlur stdDeviation="2"/>
<feComposite in2="hardAlpha" operator="out"/>
<feColorMatrix type="matrix" values="0 0 0 0 1 0 0 0 0 1 0 0 0 0 1 0 0 0 1 0"/>
<feBlend mode="normal" in2="BackgroundImageFix" result="effect1_dropShadow_391_669"/>
<feBlend mode="normal" in="SourceGraphic" in2="effect1_dropShadow_391_669" result="shape"/>
</filter>
<linearGradient id="paint0_linear_391_669" x1="222" y1="28" x2="1.37726" y2="184.459" gradientUnits="userSpaceOnUse">
<stop stop-color="#0781FC"/>
<stop offset="1" stop-color="#BBD7F3"/>
</linearGradient>
<linearGradient id="paint1_linear_391_669" x1="222" y1="39.8776" x2="-3.75983" y2="178.012" gradientUnits="userSpaceOnUse">
<stop stop-color="#0781FC"/>
<stop offset="1" stop-color="#BBD7F3"/>
</linearGradient>
<linearGradient id="paint2_linear_391_669" x1="198.77" y1="51.2295" x2="30.9824" y2="170.22" gradientUnits="userSpaceOnUse">
<stop stop-color="#0781FC"/>
<stop offset="1" stop-color="#BBD7F3"/>
</linearGradient>
<linearGradient id="paint3_linear_391_669" x1="198.77" y1="60.2626" x2="27.0755" y2="165.316" gradientUnits="userSpaceOnUse">
<stop stop-color="white" stop-opacity="0.7"/>
<stop offset="1" stop-color="white" stop-opacity="0.1"/>
</linearGradient>
<linearGradient id="paint4_linear_391_669" x1="180.328" y1="69.6721" x2="54.4868" y2="158.915" gradientUnits="userSpaceOnUse">
<stop stop-color="#0781FC"/>
<stop offset="1" stop-color="#BBD7F3"/>
</linearGradient>
<linearGradient id="paint5_linear_391_669" x1="180.328" y1="76.447" x2="51.5566" y2="155.237" gradientUnits="userSpaceOnUse">
<stop stop-color="white" stop-opacity="0.7"/>
<stop offset="1" stop-color="white" stop-opacity="0.1"/>
</linearGradient>
<linearGradient id="paint6_linear_391_669" x1="155.997" y1="99.5449" x2="116.975" y2="163.751" gradientUnits="userSpaceOnUse">
<stop stop-color="white"/>
<stop offset="1" stop-color="white" stop-opacity="0.6"/>
</linearGradient>
<linearGradient id="paint7_linear_391_669" x1="155.542" y1="99.5449" x2="116.708" y2="163.241" gradientUnits="userSpaceOnUse">
<stop stop-color="white" stop-opacity="0.8"/>
<stop offset="1" stop-color="white" stop-opacity="0.3"/>
</linearGradient>
<linearGradient id="paint8_linear_391_669" x1="121.29" y1="73.6796" x2="121.29" y2="153.768" gradientUnits="userSpaceOnUse">
<stop offset="0.34" stop-color="white" stop-opacity="0"/>
<stop offset="1" stop-color="white"/>
</linearGradient>
<linearGradient id="paint9_linear_391_669" x1="74" y1="161" x2="59.216" y2="171.484" gradientUnits="userSpaceOnUse">
<stop stop-color="#0781FC"/>
<stop offset="1" stop-color="#BBD7F3"/>
</linearGradient>
<linearGradient id="paint10_linear_391_669" x1="219.849" y1="57.763" x2="177.995" y2="89.8672" gradientUnits="userSpaceOnUse">
<stop stop-color="white"/>
<stop offset="1" stop-color="white" stop-opacity="0.6"/>
</linearGradient>
<linearGradient id="paint11_linear_391_669" x1="219.595" y1="57.7051" x2="178.007" y2="89.5034" gradientUnits="userSpaceOnUse">
<stop stop-color="white" stop-opacity="0.8"/>
<stop offset="1" stop-color="white" stop-opacity="0.3"/>
</linearGradient>
<linearGradient id="paint12_linear_391_669" x1="68.2762" y1="96" x2="25.5939" y2="154.846" gradientUnits="userSpaceOnUse">
<stop stop-color="white"/>
<stop offset="1" stop-color="white" stop-opacity="0.6"/>
</linearGradient>
<linearGradient id="paint13_linear_391_669" x1="67.8864" y1="96" x2="25.4299" y2="154.351" gradientUnits="userSpaceOnUse">
<stop stop-color="white" stop-opacity="0.8"/>
<stop offset="1" stop-color="white" stop-opacity="0.3"/>
</linearGradient>
</defs>
</svg>
