<svg width="250" height="250" viewBox="0 0 250 250" fill="none" xmlns="http://www.w3.org/2000/svg">
<circle cx="125" cy="125" r="97" fill="url(#paint0_linear_391_692)" fill-opacity="0.05"/>
<circle cx="125" cy="125" r="96.5" stroke="url(#paint1_linear_391_692)" stroke-opacity="0.6" stroke-dasharray="2 2"/>
<circle cx="125" cy="125" r="71.5" fill="url(#paint2_linear_391_692)" fill-opacity="0.4" stroke="url(#paint3_linear_391_692)"/>
<g filter="url(#filter0_d_391_692)">
<circle cx="125" cy="125" r="54" fill="url(#paint4_linear_391_692)"/>
<circle cx="125" cy="125" r="53.5" stroke="url(#paint5_linear_391_692)"/>
</g>
<g filter="url(#filter1_d_391_692)">
<mask id="path-6-inside-1_391_692" fill="white">
<path fill-rule="evenodd" clip-rule="evenodd" d="M130.828 110.087C129.266 108.525 129.266 105.993 130.828 104.431L140.43 94.8286C141.993 93.2665 144.525 93.2665 146.087 94.8286L155.689 104.431C157.251 105.993 157.251 108.525 155.689 110.087L146.087 119.689C144.525 121.251 141.993 121.251 140.43 119.689L130.828 110.087ZM104 97.0001C101.791 97.0001 100 98.7909 100 101V117C100 119.209 101.791 121 104 121H120C122.209 121 124 119.209 124 117V101C124 98.7909 122.209 97.0001 120 97.0001H104ZM104 127C101.791 127 100 128.791 100 131V147C100 149.209 101.791 151 104 151H120C122.209 151 124 149.209 124 147V131C124 128.791 122.209 127 120 127H104ZM133.316 127.567C133.537 127.523 133.766 127.5 134 127.5H135V126.5H134C133.7 126.5 133.407 126.529 133.122 126.586L133.316 127.567ZM137 127.5H139V126.5H137V127.5ZM141 127.5H143V126.5H141V127.5ZM145 127.5H147V126.5H145V127.5ZM149 127.5H150C150.234 127.5 150.463 127.523 150.684 127.567L150.878 126.586C150.593 126.529 150.3 126.5 150 126.5H149V127.5ZM131.089 129.056C131.345 128.674 131.674 128.345 132.056 128.089L131.499 127.258C131.009 127.587 130.587 128.009 130.258 128.499L131.089 129.056ZM151.944 128.089C152.326 128.345 152.655 128.674 152.911 129.056L153.742 128.499C153.413 128.009 152.991 127.587 152.501 127.258L151.944 128.089ZM153.433 130.316C153.477 130.537 153.5 130.766 153.5 131V132.221H154.5V131C154.5 130.7 154.471 130.407 154.414 130.122L153.433 130.316ZM130.5 131C130.5 130.766 130.523 130.537 130.567 130.316L129.586 130.122C129.529 130.407 129.5 130.7 129.5 131V132H130.5V131ZM130.5 136V134H129.5V136H130.5ZM153.5 134.663V137.105H154.5V134.663H153.5ZM130.5 140V138H129.5V140H130.5ZM153.5 139.547V140.768H154.5V139.547H153.5ZM130.5 144V142H129.5V144H130.5ZM130.5 147V146H129.5V147C129.5 147.3 129.529 147.593 129.586 147.878L130.567 147.684C130.523 147.463 130.5 147.234 130.5 147ZM132.056 149.911C131.674 149.655 131.345 149.326 131.089 148.944L130.258 149.501C130.587 149.991 131.009 150.413 131.499 150.742L132.056 149.911ZM134 150.5C133.766 150.5 133.537 150.477 133.316 150.433L133.122 151.414C133.407 151.471 133.7 151.5 134 151.5H134.88V150.5H134ZM138.399 150.5H136.64V151.5H138.399V150.5ZM141.919 150.5H140.159V151.5H141.919V150.5ZM144.559 150.5H143.679V151.5H144.559V150.5Z"/>
</mask>
<path fill-rule="evenodd" clip-rule="evenodd" d="M130.828 110.087C129.266 108.525 129.266 105.993 130.828 104.431L140.43 94.8286C141.993 93.2665 144.525 93.2665 146.087 94.8286L155.689 104.431C157.251 105.993 157.251 108.525 155.689 110.087L146.087 119.689C144.525 121.251 141.993 121.251 140.43 119.689L130.828 110.087ZM104 97.0001C101.791 97.0001 100 98.7909 100 101V117C100 119.209 101.791 121 104 121H120C122.209 121 124 119.209 124 117V101C124 98.7909 122.209 97.0001 120 97.0001H104ZM104 127C101.791 127 100 128.791 100 131V147C100 149.209 101.791 151 104 151H120C122.209 151 124 149.209 124 147V131C124 128.791 122.209 127 120 127H104ZM133.316 127.567C133.537 127.523 133.766 127.5 134 127.5H135V126.5H134C133.7 126.5 133.407 126.529 133.122 126.586L133.316 127.567ZM137 127.5H139V126.5H137V127.5ZM141 127.5H143V126.5H141V127.5ZM145 127.5H147V126.5H145V127.5ZM149 127.5H150C150.234 127.5 150.463 127.523 150.684 127.567L150.878 126.586C150.593 126.529 150.3 126.5 150 126.5H149V127.5ZM131.089 129.056C131.345 128.674 131.674 128.345 132.056 128.089L131.499 127.258C131.009 127.587 130.587 128.009 130.258 128.499L131.089 129.056ZM151.944 128.089C152.326 128.345 152.655 128.674 152.911 129.056L153.742 128.499C153.413 128.009 152.991 127.587 152.501 127.258L151.944 128.089ZM153.433 130.316C153.477 130.537 153.5 130.766 153.5 131V132.221H154.5V131C154.5 130.7 154.471 130.407 154.414 130.122L153.433 130.316ZM130.5 131C130.5 130.766 130.523 130.537 130.567 130.316L129.586 130.122C129.529 130.407 129.5 130.7 129.5 131V132H130.5V131ZM130.5 136V134H129.5V136H130.5ZM153.5 134.663V137.105H154.5V134.663H153.5ZM130.5 140V138H129.5V140H130.5ZM153.5 139.547V140.768H154.5V139.547H153.5ZM130.5 144V142H129.5V144H130.5ZM130.5 147V146H129.5V147C129.5 147.3 129.529 147.593 129.586 147.878L130.567 147.684C130.523 147.463 130.5 147.234 130.5 147ZM132.056 149.911C131.674 149.655 131.345 149.326 131.089 148.944L130.258 149.501C130.587 149.991 131.009 150.413 131.499 150.742L132.056 149.911ZM134 150.5C133.766 150.5 133.537 150.477 133.316 150.433L133.122 151.414C133.407 151.471 133.7 151.5 134 151.5H134.88V150.5H134ZM138.399 150.5H136.64V151.5H138.399V150.5ZM141.919 150.5H140.159V151.5H141.919V150.5ZM144.559 150.5H143.679V151.5H144.559V150.5Z" fill="url(#paint6_linear_391_692)" shape-rendering="crispEdges"/>
<path d="M130.828 104.431L130.121 103.723V103.723L130.828 104.431ZM140.43 94.8286L141.138 95.5357V95.5357L140.43 94.8286ZM146.087 94.8286L146.794 94.1214V94.1214L146.087 94.8286ZM155.689 104.431L156.396 103.723L155.689 104.431ZM155.689 110.087L156.396 110.794L155.689 110.087ZM146.087 119.689L145.38 118.982L146.087 119.689ZM140.43 119.689L139.723 120.396L140.43 119.689ZM133.316 127.567L132.335 127.761L132.529 128.742L133.51 128.548L133.316 127.567ZM135 127.5V128.5H136V127.5H135ZM135 126.5H136V125.5H135V126.5ZM133.122 126.586L132.928 125.605L131.947 125.799L132.141 126.78L133.122 126.586ZM139 127.5V128.5H140V127.5H139ZM137 127.5H136V128.5H137V127.5ZM139 126.5H140V125.5H139V126.5ZM137 126.5V125.5H136V126.5H137ZM143 127.5V128.5H144V127.5H143ZM141 127.5H140V128.5H141V127.5ZM143 126.5H144V125.5H143V126.5ZM141 126.5V125.5H140V126.5H141ZM147 127.5V128.5H148V127.5H147ZM145 127.5H144V128.5H145V127.5ZM147 126.5H148V125.5H147V126.5ZM145 126.5V125.5H144V126.5H145ZM149 127.5H148V128.5H149V127.5ZM150.684 127.567L150.49 128.548L151.471 128.742L151.665 127.761L150.684 127.567ZM150.878 126.586L151.859 126.78L152.053 125.799L151.072 125.605L150.878 126.586ZM149 126.5V125.5H148V126.5H149ZM132.056 128.089L132.612 128.92L133.443 128.364L132.887 127.533L132.056 128.089ZM131.089 129.056L130.533 129.887L131.364 130.443L131.92 129.612L131.089 129.056ZM131.499 127.258L132.33 126.702L131.774 125.871L130.943 126.427L131.499 127.258ZM130.258 128.499L129.427 127.943L128.871 128.774L129.702 129.33L130.258 128.499ZM152.911 129.056L152.08 129.612L152.636 130.443L153.467 129.887L152.911 129.056ZM151.944 128.089L151.113 127.533L150.557 128.364L151.388 128.92L151.944 128.089ZM153.742 128.499L154.298 129.33L155.129 128.774L154.573 127.943L153.742 128.499ZM152.501 127.258L153.057 126.427L152.226 125.871L151.67 126.702L152.501 127.258ZM153.433 130.316L153.239 129.335L152.258 129.53L152.452 130.51L153.433 130.316ZM153.5 132.221H152.5V133.221H153.5V132.221ZM154.5 132.221V133.221H155.5V132.221H154.5ZM154.414 130.122L155.395 129.928L155.201 128.947L154.22 129.141L154.414 130.122ZM130.567 130.316L131.548 130.511L131.742 129.53L130.761 129.335L130.567 130.316ZM129.586 130.122L129.78 129.141L128.799 128.947L128.605 129.928L129.586 130.122ZM129.5 132H128.5V133H129.5V132ZM130.5 132V133H131.5V132H130.5ZM130.5 134H131.5V133H130.5V134ZM130.5 136V137H131.5V136H130.5ZM129.5 134V133H128.5V134H129.5ZM129.5 136H128.5V137H129.5V136ZM153.5 137.105H152.5V138.105H153.5V137.105ZM153.5 134.663V133.663H152.5V134.663H153.5ZM154.5 137.105V138.105H155.5V137.105H154.5ZM154.5 134.663H155.5V133.663H154.5V134.663ZM130.5 138H131.5V137H130.5V138ZM130.5 140V141H131.5V140H130.5ZM129.5 138V137H128.5V138H129.5ZM129.5 140H128.5V141H129.5V140ZM153.5 140.768H152.5V141.768H153.5V140.768ZM153.5 139.547V138.547H152.5V139.547H153.5ZM154.5 140.768V141.768H155.5V140.768H154.5ZM154.5 139.547H155.5V138.547H154.5V139.547ZM130.5 142H131.5V141H130.5V142ZM130.5 144V145H131.5V144H130.5ZM129.5 142V141H128.5V142H129.5ZM129.5 144H128.5V145H129.5V144ZM130.5 146H131.5V145H130.5V146ZM129.5 146V145H128.5V146H129.5ZM129.586 147.878L128.605 148.072L128.799 149.053L129.78 148.859L129.586 147.878ZM130.567 147.684L130.761 148.665L131.742 148.471L131.548 147.49L130.567 147.684ZM131.089 148.944L131.92 148.388L131.364 147.557L130.533 148.113L131.089 148.944ZM132.056 149.911L132.887 150.467L133.443 149.636L132.612 149.08L132.056 149.911ZM130.258 149.501L129.702 148.67L128.871 149.226L129.427 150.057L130.258 149.501ZM131.499 150.742L130.943 151.573L131.774 152.129L132.33 151.298L131.499 150.742ZM133.316 150.433L133.51 149.452L132.529 149.258L132.335 150.239L133.316 150.433ZM133.122 151.414L132.141 151.22L131.947 152.201L132.928 152.395L133.122 151.414ZM134.88 151.5V152.5H135.88V151.5H134.88ZM134.88 150.5H135.88V149.5H134.88V150.5ZM136.64 150.5V149.5H135.64V150.5H136.64ZM138.399 150.5H139.399V149.5H138.399V150.5ZM136.64 151.5H135.64V152.5H136.64V151.5ZM138.399 151.5V152.5H139.399V151.5H138.399ZM140.159 150.5V149.5H139.159V150.5H140.159ZM141.919 150.5H142.919V149.5H141.919V150.5ZM140.159 151.5H139.159V152.5H140.159V151.5ZM141.919 151.5V152.5H142.919V151.5H141.919ZM143.679 150.5V149.5H142.679V150.5H143.679ZM144.559 150.5H145.559V149.5H144.559V150.5ZM143.679 151.5H142.679V152.5H143.679V151.5ZM144.559 151.5V152.5H145.559V151.5H144.559ZM130.121 103.723C128.169 105.676 128.169 108.842 130.121 110.794L131.536 109.38C130.364 108.209 130.364 106.309 131.536 105.138L130.121 103.723ZM139.723 94.1214L130.121 103.723L131.536 105.138L141.138 95.5357L139.723 94.1214ZM146.794 94.1214C144.842 92.1688 141.676 92.1688 139.723 94.1215L141.138 95.5357C142.309 94.3641 144.209 94.3641 145.38 95.5357L146.794 94.1214ZM156.396 103.723L146.794 94.1214L145.38 95.5357L154.982 105.138L156.396 103.723ZM156.396 110.794C158.349 108.842 158.349 105.676 156.396 103.723L154.982 105.138C156.154 106.309 156.154 108.209 154.982 109.38L156.396 110.794ZM146.794 120.396L156.396 110.794L154.982 109.38L145.38 118.982L146.794 120.396ZM139.723 120.396C141.676 122.349 144.842 122.349 146.794 120.396L145.38 118.982C144.209 120.154 142.309 120.154 141.138 118.982L139.723 120.396ZM130.121 110.794L139.723 120.396L141.138 118.982L131.536 109.38L130.121 110.794ZM101 101C101 99.3432 102.343 98.0001 104 98.0001V96.0001C101.239 96.0001 99 98.2386 99 101H101ZM101 117V101H99V117H101ZM104 120C102.343 120 101 118.657 101 117H99C99 119.761 101.239 122 104 122V120ZM120 120H104V122H120V120ZM123 117C123 118.657 121.657 120 120 120V122C122.761 122 125 119.761 125 117H123ZM123 101V117H125V101H123ZM120 98.0001C121.657 98.0001 123 99.3432 123 101H125C125 98.2386 122.761 96.0001 120 96.0001V98.0001ZM104 98.0001H120V96.0001H104V98.0001ZM101 131C101 129.343 102.343 128 104 128V126C101.239 126 99 128.239 99 131H101ZM101 147V131H99V147H101ZM104 150C102.343 150 101 148.657 101 147H99C99 149.761 101.239 152 104 152V150ZM120 150H104V152H120V150ZM123 147C123 148.657 121.657 150 120 150V152C122.761 152 125 149.761 125 147H123ZM123 131V147H125V131H123ZM120 128C121.657 128 123 129.343 123 131H125C125 128.239 122.761 126 120 126V128ZM104 128H120V126H104V128ZM134 126.5C133.7 126.5 133.407 126.529 133.122 126.586L133.51 128.548C133.668 128.517 133.831 128.5 134 128.5V126.5ZM135 126.5H134V128.5H135V126.5ZM134 126.5V127.5H136V126.5H134ZM134 127.5H135V125.5H134V127.5ZM133.316 127.567C133.537 127.523 133.766 127.5 134 127.5V125.5C133.635 125.5 133.276 125.536 132.928 125.605L133.316 127.567ZM134.297 127.373L134.103 126.392L132.141 126.78L132.335 127.761L134.297 127.373ZM139 126.5H137V128.5H139V126.5ZM138 126.5V127.5H140V126.5H138ZM137 127.5H139V125.5H137V127.5ZM138 127.5V126.5H136V127.5H138ZM143 126.5H141V128.5H143V126.5ZM142 126.5V127.5H144V126.5H142ZM141 127.5H143V125.5H141V127.5ZM142 127.5V126.5H140V127.5H142ZM147 126.5H145V128.5H147V126.5ZM146 126.5V127.5H148V126.5H146ZM145 127.5H147V125.5H145V127.5ZM146 127.5V126.5H144V127.5H146ZM150 126.5H149V128.5H150V126.5ZM150.878 126.586C150.593 126.529 150.3 126.5 150 126.5V128.5C150.169 128.5 150.332 128.517 150.49 128.548L150.878 126.586ZM149.897 126.392L149.703 127.373L151.665 127.761L151.859 126.78L149.897 126.392ZM150 127.5C150.234 127.5 150.463 127.523 150.684 127.567L151.072 125.605C150.724 125.536 150.365 125.5 150 125.5V127.5ZM149 127.5H150V125.5H149V127.5ZM150 127.5V126.5H148V127.5H150ZM131.499 127.258C131.009 127.587 130.587 128.009 130.258 128.499L131.92 129.612C132.103 129.339 132.339 129.103 132.612 128.92L131.499 127.258ZM130.668 127.815L131.225 128.646L132.887 127.533L132.33 126.702L130.668 127.815ZM131.089 129.056C131.345 128.674 131.674 128.345 132.056 128.089L130.943 126.427C130.344 126.828 129.828 127.344 129.427 127.943L131.089 129.056ZM131.646 128.225L130.815 127.668L129.702 129.33L130.533 129.887L131.646 128.225ZM153.742 128.499C153.413 128.009 152.991 127.587 152.501 127.258L151.388 128.92C151.661 129.103 151.897 129.339 152.08 129.612L153.742 128.499ZM153.185 127.668L152.354 128.225L153.467 129.887L154.298 129.33L153.185 127.668ZM151.944 128.089C152.326 128.345 152.655 128.674 152.911 129.056L154.573 127.943C154.172 127.344 153.656 126.828 153.057 126.427L151.944 128.089ZM152.775 128.646L153.332 127.815L151.67 126.702L151.113 127.533L152.775 128.646ZM154.5 131C154.5 130.7 154.471 130.407 154.414 130.122L152.452 130.51C152.483 130.668 152.5 130.831 152.5 131H154.5ZM154.5 132.221V131H152.5V132.221H154.5ZM154.5 131.221H153.5V133.221H154.5V131.221ZM153.5 131V132.221H155.5V131H153.5ZM153.433 130.316C153.477 130.537 153.5 130.766 153.5 131H155.5C155.5 130.635 155.464 130.276 155.395 129.928L153.433 130.316ZM153.627 131.297L154.608 131.103L154.22 129.141L153.239 129.335L153.627 131.297ZM129.586 130.122C129.529 130.407 129.5 130.7 129.5 131H131.5C131.5 130.831 131.517 130.668 131.548 130.511L129.586 130.122ZM129.392 131.103L130.373 131.297L130.761 129.335L129.78 129.141L129.392 131.103ZM130.5 131C130.5 130.766 130.523 130.537 130.567 130.316L128.605 129.928C128.536 130.276 128.5 130.635 128.5 131H130.5ZM130.5 132V131H128.5V132H130.5ZM130.5 131H129.5V133H130.5V131ZM129.5 131V132H131.5V131H129.5ZM129.5 134V136H131.5V134H129.5ZM129.5 135H130.5V133H129.5V135ZM130.5 136V134H128.5V136H130.5ZM130.5 135H129.5V137H130.5V135ZM154.5 137.105V134.663H152.5V137.105H154.5ZM154.5 136.105H153.5V138.105H154.5V136.105ZM153.5 134.663V137.105H155.5V134.663H153.5ZM153.5 135.663H154.5V133.663H153.5V135.663ZM129.5 138V140H131.5V138H129.5ZM129.5 139H130.5V137H129.5V139ZM130.5 140V138H128.5V140H130.5ZM130.5 139H129.5V141H130.5V139ZM154.5 140.768V139.547H152.5V140.768H154.5ZM154.5 139.768H153.5V141.768H154.5V139.768ZM153.5 139.547V140.768H155.5V139.547H153.5ZM153.5 140.547H154.5V138.547H153.5V140.547ZM129.5 142V144H131.5V142H129.5ZM129.5 143H130.5V141H129.5V143ZM130.5 144V142H128.5V144H130.5ZM130.5 143H129.5V145H130.5V143ZM129.5 146V147H131.5V146H129.5ZM129.5 147H130.5V145H129.5V147ZM130.5 147V146H128.5V147H130.5ZM130.567 147.684C130.523 147.463 130.5 147.234 130.5 147H128.5C128.5 147.365 128.536 147.724 128.605 148.072L130.567 147.684ZM130.373 146.703L129.392 146.897L129.78 148.859L130.761 148.665L130.373 146.703ZM129.5 147C129.5 147.3 129.529 147.593 129.586 147.878L131.548 147.49C131.517 147.332 131.5 147.169 131.5 147H129.5ZM130.258 149.501C130.587 149.991 131.009 150.413 131.499 150.742L132.612 149.08C132.339 148.897 132.103 148.661 131.92 148.388L130.258 149.501ZM130.815 150.332L131.646 149.775L130.533 148.113L129.702 148.67L130.815 150.332ZM132.056 149.911C131.674 149.655 131.345 149.326 131.089 148.944L129.427 150.057C129.828 150.656 130.344 151.172 130.943 151.573L132.056 149.911ZM131.225 149.355L130.668 150.185L132.33 151.298L132.887 150.467L131.225 149.355ZM133.122 151.414C133.407 151.471 133.7 151.5 134 151.5V149.5C133.831 149.5 133.668 149.484 133.51 149.452L133.122 151.414ZM134.103 151.608L134.297 150.627L132.335 150.239L132.141 151.22L134.103 151.608ZM134 150.5C133.766 150.5 133.537 150.477 133.316 150.433L132.928 152.395C133.276 152.464 133.635 152.5 134 152.5V150.5ZM134.88 150.5H134V152.5H134.88V150.5ZM133.88 150.5V151.5H135.88V150.5H133.88ZM134 151.5H134.88V149.5H134V151.5ZM136.64 151.5H138.399V149.5H136.64V151.5ZM137.64 151.5V150.5H135.64V151.5H137.64ZM138.399 150.5H136.64V152.5H138.399V150.5ZM137.399 150.5V151.5H139.399V150.5H137.399ZM140.159 151.5H141.919V149.5H140.159V151.5ZM141.159 151.5V150.5H139.159V151.5H141.159ZM141.919 150.5H140.159V152.5H141.919V150.5ZM140.919 150.5V151.5H142.919V150.5H140.919ZM143.679 151.5H144.559V149.5H143.679V151.5ZM144.679 151.5V150.5H142.679V151.5H144.679ZM144.559 150.5H143.679V152.5H144.559V150.5ZM143.559 150.5V151.5H145.559V150.5H143.559Z" fill="url(#paint7_linear_391_692)" mask="url(#path-6-inside-1_391_692)"/>
</g>
<path fill-rule="evenodd" clip-rule="evenodd" d="M145.727 138.577C146.153 138.435 146.191 137.847 145.787 137.652L139.8 134.756C139.479 134.601 139.103 134.822 139.084 135.178L138.713 141.818C138.688 142.266 139.22 142.518 139.55 142.214L141.193 140.704C141.427 140.489 141.8 140.544 141.962 140.819L144.258 144.717C144.398 144.955 144.704 145.034 144.942 144.894L145.456 144.592C145.694 144.451 145.773 144.145 145.633 143.907L143.337 140.009C143.176 139.735 143.308 139.381 143.61 139.281L145.727 138.577Z" fill="white"/>
<g filter="url(#filter2_d_391_692)">
<ellipse cx="121.29" cy="113.724" rx="110.259" ry="40.0443" transform="rotate(-20.8876 121.29 113.724)" stroke="url(#paint8_linear_391_692)" stroke-width="2" shape-rendering="crispEdges"/>
</g>
<g filter="url(#filter3_d_391_692)">
<circle cx="218.5" cy="97.5" r="6.5" fill="url(#paint9_linear_391_692)" fill-opacity="0.6" shape-rendering="crispEdges"/>
<circle cx="218.5" cy="97.5" r="6" stroke="white" shape-rendering="crispEdges"/>
</g>
<defs>
<filter id="filter0_d_391_692" x="55" y="55" width="140" height="140" filterUnits="userSpaceOnUse" color-interpolation-filters="sRGB">
<feFlood flood-opacity="0" result="BackgroundImageFix"/>
<feColorMatrix in="SourceAlpha" type="matrix" values="0 0 0 0 0 0 0 0 0 0 0 0 0 0 0 0 0 0 127 0" result="hardAlpha"/>
<feOffset/>
<feGaussianBlur stdDeviation="8"/>
<feComposite in2="hardAlpha" operator="out"/>
<feColorMatrix type="matrix" values="0 0 0 0 0.131042 0 0 0 0 0.488732 0 0 0 0 0.85 0 0 0 0.3 0"/>
<feBlend mode="normal" in2="BackgroundImageFix" result="effect1_dropShadow_391_692"/>
<feBlend mode="normal" in="SourceGraphic" in2="effect1_dropShadow_391_692" result="shape"/>
</filter>
<filter id="filter1_d_391_692" x="92" y="89.657" width="72.8608" height="73.843" filterUnits="userSpaceOnUse" color-interpolation-filters="sRGB">
<feFlood flood-opacity="0" result="BackgroundImageFix"/>
<feColorMatrix in="SourceAlpha" type="matrix" values="0 0 0 0 0 0 0 0 0 0 0 0 0 0 0 0 0 0 127 0" result="hardAlpha"/>
<feOffset dy="4"/>
<feGaussianBlur stdDeviation="4"/>
<feComposite in2="hardAlpha" operator="out"/>
<feColorMatrix type="matrix" values="0 0 0 0 0.301597 0 0 0 0 0.358848 0 0 0 0 0.716667 0 0 0 0.2 0"/>
<feBlend mode="normal" in2="BackgroundImageFix" result="effect1_dropShadow_391_692"/>
<feBlend mode="normal" in="SourceGraphic" in2="effect1_dropShadow_391_692" result="shape"/>
</filter>
<filter id="filter2_d_391_692" x="12.2793" y="54.4552" width="218.022" height="118.537" filterUnits="userSpaceOnUse" color-interpolation-filters="sRGB">
<feFlood flood-opacity="0" result="BackgroundImageFix"/>
<feColorMatrix in="SourceAlpha" type="matrix" values="0 0 0 0 0 0 0 0 0 0 0 0 0 0 0 0 0 0 127 0" result="hardAlpha"/>
<feOffset/>
<feGaussianBlur stdDeviation="2"/>
<feComposite in2="hardAlpha" operator="out"/>
<feColorMatrix type="matrix" values="0 0 0 0 1 0 0 0 0 1 0 0 0 0 1 0 0 0 1 0"/>
<feBlend mode="normal" in2="BackgroundImageFix" result="effect1_dropShadow_391_692"/>
<feBlend mode="normal" in="SourceGraphic" in2="effect1_dropShadow_391_692" result="shape"/>
</filter>
<filter id="filter3_d_391_692" x="208" y="87" width="21" height="21" filterUnits="userSpaceOnUse" color-interpolation-filters="sRGB">
<feFlood flood-opacity="0" result="BackgroundImageFix"/>
<feColorMatrix in="SourceAlpha" type="matrix" values="0 0 0 0 0 0 0 0 0 0 0 0 0 0 0 0 0 0 127 0" result="hardAlpha"/>
<feOffset/>
<feGaussianBlur stdDeviation="2"/>
<feComposite in2="hardAlpha" operator="out"/>
<feColorMatrix type="matrix" values="0 0 0 0 1 0 0 0 0 1 0 0 0 0 1 0 0 0 1 0"/>
<feBlend mode="normal" in2="BackgroundImageFix" result="effect1_dropShadow_391_692"/>
<feBlend mode="normal" in="SourceGraphic" in2="effect1_dropShadow_391_692" result="shape"/>
</filter>
<linearGradient id="paint0_linear_391_692" x1="222" y1="28" x2="1.37726" y2="184.459" gradientUnits="userSpaceOnUse">
<stop stop-color="#0781FC"/>
<stop offset="1" stop-color="#BBD7F3"/>
</linearGradient>
<linearGradient id="paint1_linear_391_692" x1="222" y1="39.8776" x2="-3.75983" y2="178.012" gradientUnits="userSpaceOnUse">
<stop stop-color="#0781FC"/>
<stop offset="1" stop-color="#BBD7F3"/>
</linearGradient>
<linearGradient id="paint2_linear_391_692" x1="197" y1="53" x2="33.2388" y2="169.135" gradientUnits="userSpaceOnUse">
<stop stop-color="#0781FC"/>
<stop offset="1" stop-color="#BBD7F3"/>
</linearGradient>
<linearGradient id="paint3_linear_391_692" x1="197" y1="61.8164" x2="29.4257" y2="164.349" gradientUnits="userSpaceOnUse">
<stop stop-color="white" stop-opacity="0.7"/>
<stop offset="1" stop-color="white" stop-opacity="0.1"/>
</linearGradient>
<linearGradient id="paint4_linear_391_692" x1="179" y1="71" x2="56.1791" y2="158.101" gradientUnits="userSpaceOnUse">
<stop stop-color="#0781FC"/>
<stop offset="1" stop-color="#BBD7F3"/>
</linearGradient>
<linearGradient id="paint5_linear_391_692" x1="179" y1="77.6123" x2="53.3193" y2="154.512" gradientUnits="userSpaceOnUse">
<stop stop-color="white" stop-opacity="0.7"/>
<stop offset="1" stop-color="white" stop-opacity="0.1"/>
</linearGradient>
<linearGradient id="paint6_linear_391_692" x1="156.369" y1="93.5323" x2="110.119" y2="156.747" gradientUnits="userSpaceOnUse">
<stop stop-color="white"/>
<stop offset="1" stop-color="white" stop-opacity="0.6"/>
</linearGradient>
<linearGradient id="paint7_linear_391_692" x1="155.951" y1="93.5323" x2="109.947" y2="156.213" gradientUnits="userSpaceOnUse">
<stop stop-color="white" stop-opacity="0.8"/>
<stop offset="1" stop-color="white" stop-opacity="0.3"/>
</linearGradient>
<linearGradient id="paint8_linear_391_692" x1="121.29" y1="73.6796" x2="121.29" y2="153.768" gradientUnits="userSpaceOnUse">
<stop offset="0.34" stop-color="white" stop-opacity="0"/>
<stop offset="1" stop-color="white"/>
</linearGradient>
<linearGradient id="paint9_linear_391_692" x1="225" y1="91" x2="210.216" y2="101.484" gradientUnits="userSpaceOnUse">
<stop stop-color="#0781FC"/>
<stop offset="1" stop-color="#BBD7F3"/>
</linearGradient>
</defs>
</svg>
